<?xml version="1.0" encoding="UTF-8"?>
<svg id="Calque_2" xmlns="http://www.w3.org/2000/svg" xmlns:xlink="http://www.w3.org/1999/xlink" viewBox="0 0 2066.12 1505.5">
  <defs>
    <style>
      .cls-1, .cls-2 {
        stroke: #fff;
        stroke-miterlimit: 10;
        stroke-width: 13px;
      }

      .cls-3 {
        clip-path: url(#clippath);
      }

      .cls-2 {
        fill: none;
      }
    </style>
    <clipPath id="clippath">
      <path class="cls-1" d="M272.77,691.87c-206.36,56.44-326.78,318.54-235.18,511.87,91.6,193.34,370.69,266.15,545.07,142.21,32.69,59.75,86.62,107.6,149.83,132.95,94.57,37.92,210.1,21.78,287.1-44.94,77.01-66.71,109.17-182.52,72.51-277.58,13.93,77.01,108.29,105.44,186.08,114.04,138.49,15.31,278.47,17.19,417.32,5.61,109.08-9.1,227.3-31.7,298.35-114.96,85.29-99.93,71.76-248.48,46.91-377.48-9.64-50.04-22.32-103.56-60.67-137.12-38.35-33.56-110.58-31.12-129.62,16.15,81.93,22.25,160.25-70.42,150.98-154.81-9.28-84.39-77.39-150.82-150.63-193.74-153.85-90.17-348.74-106.73-515.6-43.83-3.08-96.36-77.95-178.95-165.83-218.6C1081.54,11.98,982.34,7.36,885.93,6.54c-39.18-.33-81.45.84-112.67,24.51-31.22,23.67-40.4,78.65-7.51,99.94,16.63,34.19,75.72-3.53,64.99-40.01-10.73-36.48-53.68-51.65-91.26-57.44-185.05-28.48-382.66,47.25-501.29,192.11-118.62,144.86-153.9,353.52-89.5,529.33"/>
    </clipPath>
  </defs>
  <g id="Calque_1-2" data-name="Calque_1">
    <g>
      <path d="M272.77,691.87c-206.36,56.44-326.78,318.54-235.18,511.87,91.6,193.34,370.69,266.15,545.07,142.21,32.69,59.75,86.62,107.6,149.83,132.95,94.57,37.92,210.1,21.78,287.1-44.94,77.01-66.71,109.17-182.52,72.51-277.58,13.93,77.01,108.29,105.44,186.08,114.04,138.49,15.31,278.47,17.19,417.32,5.61,109.08-9.1,227.3-31.7,298.35-114.96,85.29-99.93,71.76-248.48,46.91-377.48-9.64-50.04-22.32-103.56-60.67-137.12-38.35-33.56-110.58-31.12-129.62,16.15,81.93,22.25,160.25-70.42,150.98-154.81-9.28-84.39-77.39-150.82-150.63-193.74-153.85-90.17-348.74-106.73-515.6-43.83-3.08-96.36-77.95-178.95-165.83-218.6C1081.54,11.98,982.34,7.36,885.93,6.54c-39.18-.33-81.45.84-112.67,24.51-31.22,23.67-40.4,78.65-7.51,99.94,16.63,34.19,75.72-3.53,64.99-40.01-10.73-36.48-53.68-51.65-91.26-57.44-185.05-28.48-382.66,47.25-501.29,192.11-118.62,144.86-153.9,353.52-89.5,529.33"/>
      <g class="cls-3">
        <image width="1241" height="1120" transform="translate(33.62 25.03) scale(1.3)" xlink:href="../test-j2.png"/>
      </g>
      <path class="cls-2" d="M272.77,691.87c-206.36,56.44-326.78,318.54-235.18,511.87,91.6,193.34,370.69,266.15,545.07,142.21,32.69,59.75,86.62,107.6,149.83,132.95,94.57,37.92,210.1,21.78,287.1-44.94,77.01-66.71,109.17-182.52,72.51-277.58,13.93,77.01,108.29,105.44,186.08,114.04,138.49,15.31,278.47,17.19,417.32,5.61,109.08-9.1,227.3-31.7,298.35-114.96,85.29-99.93,71.76-248.48,46.91-377.48-9.64-50.04-22.32-103.56-60.67-137.12-38.35-33.56-110.58-31.12-129.62,16.15,81.93,22.25,160.25-70.42,150.98-154.81-9.28-84.39-77.39-150.82-150.63-193.74-153.85-90.17-348.74-106.73-515.6-43.83-3.08-96.36-77.95-178.95-165.83-218.6C1081.54,11.98,982.34,7.36,885.93,6.54c-39.18-.33-81.45.84-112.67,24.51-31.22,23.67-40.4,78.65-7.51,99.94,16.63,34.19,75.72-3.53,64.99-40.01-10.73-36.48-53.68-51.65-91.26-57.44-185.05-28.48-382.66,47.25-501.29,192.11-118.62,144.86-153.9,353.52-89.5,529.33"/>
    </g>
    <path d="M322.11,862.14c-4.16-6.6-8.06-13.39-11.11-20.58l1.36,3.22c-2.43-5.8-4.26-11.83-5.13-18.07l.48,3.59c-.58-4.45-.6-8.93-.02-13.37l-.48,3.59c.55-4.01,1.58-7.93,3.16-11.66l-1.36,3.22c1.24-2.88,2.8-5.6,4.7-8.1l-2.11,2.73c1.7-2.19,3.64-4.16,5.83-5.88l-2.73,2.11c2.26-1.73,4.72-3.15,7.34-4.28l-3.22,1.36c3.43-1.44,7.02-2.36,10.7-2.86l-3.59.48c4.63-.59,9.32-.54,13.95.08l-3.59-.48c3.68.52,7.28,1.42,10.71,2.86l-3.22-1.36c2.28.99,4.42,2.21,6.4,3.72l-2.73-2.11c1.13.89,2.17,1.86,3.14,2.93,2.27,2.49,6.25,3.95,9.55,3.95s7.27-1.47,9.55-3.95,4.12-5.95,3.95-9.55-1.45-6.8-3.95-9.55c-4.63-5.08-10.61-8.32-16.96-10.71-5.4-2.03-11.33-2.83-17.05-3.16s-12.03.26-17.79,1.63-11.36,3.7-16.05,7.11c-2.54,1.85-5.06,3.78-7.22,6.08s-4.14,4.89-5.86,7.55c-1.18,1.83-2.18,3.75-3.04,5.75-1.29,2.98-2.54,5.95-3.37,9.1-2.92,11.03-2.52,22.64.32,33.63,3.19,12.35,9.4,23.85,16.16,34.57,1.85,2.93,4.68,5.27,8.07,6.2s7.53.49,10.4-1.36c2.88-1.86,5.42-4.63,6.2-8.07s.59-7.3-1.36-10.4h0Z"/>
    <path d="M349.22,726.81c-1.36,5.68-3.16,11.23-5.41,16.62l1.36-3.22c-1.66,3.92-3.37,8.13-5.96,11.55l2.11-2.73c-.57.72-1.19,1.36-1.89,1.94l2.73-2.11c-.66.5-1.35.91-2.1,1.26l3.22-1.36c-1.45.6-2.94.92-4.49,1.13l3.59-.48c-10.55,1.33-21.4,1.04-31.93-.35l3.59.48c-4.88-.66-9.65-1.82-14.51-2.56-3.19-.48-6.52-1.06-9.77-.84-4.51.31-8.21,1.23-12.26,3.2-1,.49-1.91,1.09-2.8,1.76-1.7,1.28-3.39,2.56-4.92,4.04s-2.94,3.03-4.32,4.62c-3.33,3.84-6.46,7.91-9.26,12.15-10.23,15.48-15.9,33.65-17.36,52.07-.81,10.21.11,20.6,2.31,30.6.71,3.21,3.42,6.44,6.2,8.07s7.16,2.41,10.4,1.36,6.42-3.08,8.07-6.2c1.75-3.31,2.17-6.72,1.36-10.4-.53-2.4-.96-4.82-1.3-7.26l.48,3.59c-1.1-8.22-1.07-16.54,0-24.76l-.48,3.59c1.16-8.61,3.46-17.03,6.84-25.03l-1.36,3.22c3.15-7.39,7.19-14.36,12.1-20.72l-2.11,2.73c2.88-3.71,6.01-7.51,9.7-10.45l-2.73,2.11c1-.76,2.04-1.42,3.18-1.94l-3.22,1.36c1.3-.55,2.63-.89,4.02-1.08l-3.59.48c2.13-.24,4.24-.13,6.36.14l-3.59-.48c2.93.4,5.81,1.08,8.72,1.62,4.02.75,8.09,1.3,12.15,1.78,6.21.74,12.47,1.03,18.73.88,3.05-.07,6.09-.25,9.12-.54,5.07-.48,9.47-1.14,14.04-3.48,6.73-3.45,10.38-10.61,13.32-17.21,3.17-7.12,5.88-14.37,7.69-21.96.83-3.48.47-7.28-1.36-10.4-1.64-2.8-4.85-5.47-8.07-6.2-3.46-.79-7.33-.62-10.4,1.36-2.9,1.87-5.38,4.62-6.2,8.07h0Z"/>
    <path d="M386.63,721.74c.05-.96.13-1.91.25-2.87l-.48,3.59c.45-3.31,1.38-6.5,2.67-9.57l-1.36,3.22c2.23-5.19,5.4-9.89,8.84-14.36l-2.11,2.73c3.85-4.96,8.03-9.65,12-14.51,4.53-5.55,9.08-11.28,12.39-17.68,3.99-7.74,6.36-15.89,6.55-24.64s-1.86-17.44-4.32-25.73-5.46-16.7-6.67-25.41l.48,3.59c-.55-4.17-.65-8.36-.1-12.53l-.48,3.59c.6-4.19,1.82-8.24,3.46-12.14l-1.36,3.22c3.47-8.09,8.53-15.33,13.47-22.57,2.5-3.66,4.98-7.34,7.24-11.15,1.74-2.93,3.18-5.9,4.42-9.09.4-1.02.74-2.06.94-3.14.4-2.22.8-4.5.59-6.75-.34-3.58-1.01-6.31-2.72-9.52-1.01-1.9-2.44-3.62-3.93-5.17-2.43-2.52-5.47-4.41-8.23-6.54l2.73,2.11c-3.48-2.73-6.66-5.81-9.38-9.31l2.11,2.73c-2.01-2.62-3.72-5.44-5.03-8.47l1.36,3.22c-1-2.4-1.72-4.88-2.1-7.46l.48,3.59c-.31-2.34-.33-4.67-.04-7.01l-.48,3.59c.33-2.32.95-4.57,1.84-6.73l-1.36,3.22c.93-2.16,2.1-4.17,3.52-6.04l-2.11,2.73c1.37-1.74,2.91-3.3,4.66-4.67l-2.73,2.11c1.73-1.31,3.59-2.39,5.58-3.25l-3.22,1.36c2.28-.94,4.63-1.57,7.08-1.9l-3.59.48c2.31-.28,4.61-.27,6.92.02l-3.59-.48c1.76.25,3.47.66,5.15,1.24l-9.43-9.43c.8,2.88,1.4,5.8,1.8,8.76l-.48-3.59c.72,5.63.71,11.32-.02,16.95l.48-3.59c-.77,5.63-2.25,11.11-4.45,16.35l1.36-3.22c-.23.55-.48,1.09-.72,1.64l-1.36,3.22c-.56,1.79-.64,3.59-.24,5.38.36,2.65,1.5,6.04,3.71,7.75,2.5,1.94,4.92,3.87,7.72,5.36s5.59,2.65,8.5,3.63c4.92,1.65,10.34,2.39,15.52,2.27,3.03-.07,5.79-1.05,8.18-2.9,2.23-1.72,4.19-4.19,4.84-7.01.54-2.37.54-4.8,0-7.18-.71-3.11-3.41-6.56-6.2-8.07-14.09-7.59-28.1-15.33-42.27-22.77-4.32-2.27-8.97-3.54-13.82-2.19-4.3,1.19-8.19,4.35-10.18,8.36s-3.34,8.9-4.73,13.35c-2.58,8.29-4.46,16.62-5.45,25.26-1.11,9.69.49,19.11,1.78,28.71l-.48-3.59c.74,5.6,1.27,11.25.53,16.88l.48-3.59c-.58,4.04-1.79,7.92-3.38,11.68l1.36-3.22c-2.81,6.55-6.61,12.6-10.04,18.84-4.13,7.5-7.6,15.47-9.67,23.8-1.19,4.8-1.91,9.74-2.4,14.66-.46,4.65-.42,9.06.31,13.69.97,6.22,4.74,11.72,10.03,15.08,5.87,3.71,14.04,4.01,19.98.33,4.19-2.6,6.98-6.66,8.36-11.35.86-2.92.97-6.06,1.35-9.07.58-4.59,1.15-9.18,1.73-13.78-8.84,1.2-17.68,2.39-26.52,3.59.12.83.24,1.66.35,2.49l-.48-3.59c1.09,8.32,1.42,16.72,1,25.1-.17,3.35,1.63,7.22,3.95,9.55s6.18,4.1,9.55,3.95,7.11-1.3,9.55-3.95,3.77-5.83,3.95-9.55c.53-10.47-.28-20.82-1.83-31.18-.42-1.76-1.22-3.29-2.42-4.59-.95-1.47-2.21-2.63-3.79-3.48-2.73-1.44-5.54-2.01-8.61-1.6-2.83.38-5.76,1.54-7.75,3.71l-2.11,2.73c-1.22,2.11-1.84,4.38-1.84,6.81-.7,5.54-1.38,11.08-2.09,16.61l.48-3.59c-.17,1.27-.4,2.52-.9,3.71l1.36-3.22c-.22.45-.46.86-.76,1.27l2.11-2.73c-.24.28-.48.52-.76.76l2.73-2.11c-.35.25-.69.45-1.08.62l3.22-1.36c-.4.14-.78.24-1.2.3l3.59-.48c-.54.05-1.05.04-1.58-.03l3.59.48c-.54-.1-1.06-.24-1.57-.44l3.22,1.36c-.62-.27-1.18-.59-1.72-.99l2.73,2.11c-.43-.35-.82-.72-1.18-1.15l2.11,2.73c-.47-.62-.85-1.28-1.18-2l1.36,3.22c-.46-1.12-.75-2.28-.92-3.48l.48,3.59c-.52-4.24-.06-8.67.5-12.89l-.48,3.59c.95-6.82,2.77-13.47,5.44-19.82l-1.36,3.22c3.35-7.84,8.08-14.95,11.97-22.51,2.39-4.63,4.57-9.49,6.03-14.5s2.21-10.87,2.08-16.33c-.15-6.47-1.31-12.89-2.18-19.29l.48,3.59c-.93-6.95-1.23-13.77-.32-20.74l-.48,3.59c.71-5.2,1.9-10.31,3.33-15.35s2.81-9.94,4.68-14.69l-1.36,3.22c.24-.56.51-1.07.88-1.55l-2.11,2.73c.14-.18.3-.34.48-.48l-2.73,2.11c.18-.14.37-.26.57-.35l-3.22,1.36c.24-.11.5-.17.76-.2l-3.59.48c.29-.03.59,0,.88.05l-3.59-.48c.3.06.59.15.87.26l-3.22-1.36c3.71,1.61,7.25,3.83,10.81,5.75s7.27,3.92,10.9,5.87c7.27,3.92,14.53,7.83,21.8,11.75,2.27-8.39,4.54-16.77,6.81-25.16-1.85.04-3.68-.05-5.52-.29l3.59.48c-3.1-.44-6.11-1.27-9-2.48l3.22,1.36c-2.61-1.13-5.06-2.56-7.33-4.27l2.73,2.11-.34-.26c.7,5.45,1.41,10.91,2.11,16.36,2.5-5.5,4.64-11.09,5.83-17.02s1.87-11.86,1.73-17.82-.96-12.13-2.47-17.96c-.4-1.55-.84-3.16-1.71-4.52-1.21-1.87-2.86-3.79-4.84-4.84-1.1-.58-2.44-1.09-3.61-1.49-1.09-.37-2.22-.66-3.35-.88-3.22-.61-6.59-1.08-9.89-.91-6.67.34-13.24,2.06-19.02,5.49-5.49,3.26-10.03,7.89-13.43,13.27-3.53,5.59-5.18,11.79-5.85,18.28-.28,2.71,0,5.34.37,8.03s.83,5.26,1.77,7.8c2.47,6.72,5.93,12.31,10.59,17.74,4,4.66,8.89,8.19,13.74,11.92l-2.73-2.11c1.23.96,2.38,1.98,3.35,3.22l-2.11-2.73c.45.62.83,1.26,1.14,1.97l-1.36-3.22c.26.66.43,1.32.55,2.01l-.48-3.59c.1.85.09,1.68,0,2.53l.48-3.59c-.21,1.46-.64,2.83-1.21,4.19l1.36-3.22c-2.95,6.78-7.62,12.9-11.76,18.98s-8.26,12.21-11.29,18.92c-1.88,4.18-3.66,8.44-4.69,12.92s-1.64,9.31-1.54,13.98c.18,8.53,2.19,16.95,4.63,25.09s5.2,15.99,6.36,24.32l-.48-3.59c.53,3.99.65,8.01.13,12l.48-3.59c-.48,3.43-1.42,6.75-2.75,9.95l1.36-3.22c-2.29,5.39-5.55,10.28-9.1,14.9l2.11-2.73c-4.42,5.72-9.29,11.07-13.78,16.73-2.83,3.57-5.65,7.17-8.07,11.03s-4.24,7.83-5.84,12.02c-1.77,4.63-2.58,9.66-2.83,14.59-.17,3.35,1.62,7.22,3.95,9.55,2.34,2.34,6.18,4.1,9.55,3.95s7.11-1.3,9.55-3.95,3.77-5.83,3.95-9.55h0Z"/>
    <path d="M455.15,478.57c14.74,3.3,31.08,5.91,44.66-2.61,6.83-4.29,11.84-10.27,14.64-17.83.41-1.12.7-2.25.88-3.43.36-2.34.74-4.66.54-7.03-.43-5.21-1.81-9.62-4.15-14.31-3.03-6.09-7.86-11.09-10.61-17.34l1.36,3.22c-.7-1.68-1.23-3.39-1.51-5.2l.48,3.59c-.15-1.23-.2-2.44-.09-3.68l-.48,3.59c.14-1.02.4-1.96.77-2.92l-1.36,3.22c.42-.95.92-1.81,1.53-2.64l-2.11,2.73c.72-.92,1.52-1.72,2.44-2.44l-2.73,2.11c.68-.49,1.39-.9,2.16-1.25l-3.22,1.36c.63-.25,1.26-.43,1.93-.56l-3.59.48c.67-.09,1.3-.1,1.97-.04l-3.59-.48c.68.1,1.31.28,1.95.54l-3.22-1.36.38.19c-.91-7.07-1.82-14.14-2.73-21.2-13.8,15.14-25.6,32.2-34.51,50.66-1.35,2.8-2.02,5.47-1.6,8.61.38,2.83,1.54,5.76,3.71,7.75,4.47,4.1,10.98,5.18,16.36,2.11s9.71-7.42,13.48-12.43c3.17-4.21,5.24-8.93,7.26-13.76,3.42-8.18,5.61-16.81,9.03-24.99l-1.36,3.22c1.75-4.12,3.82-8.1,6.54-11.67l-2.11,2.73c1.74-2.23,3.7-4.22,5.91-5.97l-2.73,2.11c2.36-1.8,4.9-3.29,7.62-4.46l-3.22,1.36c2.74-1.13,5.58-1.9,8.52-2.31l-3.59.48c.86-.11,1.73-.18,2.59-.23l-11.66-20.31c-3.61,6.86-7.22,13.72-10.82,20.58-3.16,6-1.97,13.21,3.48,17.42,2.28,1.76,5.22,3.03,8.18,2.9,3.74-.17,6.7-1.52,9.55-3.95,8.79-7.52,16.4-16.34,22.91-25.89,1.46-2.15,2.87-4.34,4.18-6.59,2.88-4.97,4.33-10.28,3.15-16.01-1.06-5.11-4.47-8.99-8.66-11.85-2.66-1.82-5.84-2.79-8.8-4.02l3.22,1.36c-2.44-1.05-4.71-2.39-6.82-3.99l2.73,2.11c-2.32-1.81-4.38-3.9-6.2-6.22l2.11,2.73c-1.88-2.47-3.43-5.15-4.66-8l1.36,3.22c-1.19-2.86-2.02-5.84-2.46-8.91l.48,3.59c-.38-2.92-.41-5.84-.03-8.77l-.48,3.59c.39-2.68,1.11-5.26,2.15-7.75l-1.36,3.22c1.09-2.5,2.47-4.82,4.12-6.99l-2.11,2.73c1.87-2.4,4.01-4.53,6.4-6.4l-2.73,2.11c2.54-1.94,5.28-3.54,8.23-4.79l-3.22,1.36c2.81-1.15,5.71-1.94,8.71-2.35l-3.59.48c2.56-.31,5.12-.32,7.68-.03-2.27-8.39-4.54-16.77-6.81-25.16-24.37,12.63-42.69,36.93-49.05,63.54-1.85,7.75-2.83,15.84-2.67,23.81.13,6.74,5.04,12.36,11.71,13.26,6.32.85,13.35-3.08,14.81-9.67,4.41-19.84,9.01-39.78,16.9-58.58l-1.36,3.22c4.39-10.36,9.79-20.29,16.68-29.21l-2.11,2.73c2.73-3.5,5.66-6.82,8.81-9.95s6.14-5.86,8.89-9.09c4.05-4.74,7.3-9.58,9.24-15.56,1.67-5.16,1.05-10.43,1.71-15.69l-.48,3.59c.15-.94.36-1.83.7-2.72l-1.36,3.22c.32-.73.7-1.38,1.19-2.01l-2.11,2.73c.38-.43.77-.82,1.21-1.18l-2.73,2.11c.55-.4,1.11-.73,1.73-1.01l-3.22,1.36c.9-.35,1.8-.57,2.75-.7l-3.59.48c4.66-.5,9.28.87,13.94.6,3.77-.22,6.98-.89,10.39-2.34s5.95-3.15,8.8-5.54c3.81-3.2,6.79-7.59,9.23-11.89,2.17-3.83,3.94-7.86,5.81-11.84,2.3-4.9,4.9-9.56,8.19-13.88l-2.11,2.73c4.19-5.43,9.14-10.18,14.55-14.38l-2.73,2.11c9.94-7.64,21.18-13.38,32.7-18.24l-3.22,1.36c21.26-8.93,43.47-15.74,66.02-20.55,6.58-1.4,13.21-2.62,19.86-3.68,3.13-.5,6.54-3.59,8.07-6.2,1.69-2.89,2.41-7.16,1.36-10.4s-3.08-6.42-6.2-8.07l-3.22-1.36c-2.39-.64-4.79-.64-7.18,0-27.41,4.34-54.33,11.67-80.13,21.88-11.55,4.57-23.02,9.59-33.53,16.26-11.12,7.06-20.8,15.62-28.55,26.27-6.68,9.18-9.51,20.53-16.37,29.56l2.11-2.73c-1.28,1.64-2.69,3.15-4.32,4.44l2.73-2.11c-1.2.91-2.48,1.68-3.87,2.27l3.22-1.36c-1.21.48-2.44.82-3.72,1.02l3.59-.48c-3.21.43-6.41-.05-9.61-.35-4.7-.45-9.38-.09-13.76,1.76-6.13,2.59-10.9,7.94-12.43,14.51-1.06,4.55-.6,9.03-1.17,13.6l.48-3.59c-.27,1.74-.75,3.4-1.42,5.02l1.36-3.22c-.97,2.2-2.25,4.21-3.71,6.12l2.11-2.73c-4.86,6.21-11.1,11.17-16.2,17.18-5.81,6.84-10.97,14.22-15.26,22.1-8.24,15.14-13.86,31.66-18.27,48.28-2.37,8.92-4.41,17.93-6.41,26.94,8.84,1.2,17.68,2.39,26.52,3.59-.08-4,.15-8,.66-11.97l-.48,3.59c1.01-7.46,3.04-14.74,5.96-21.68l-1.36,3.22c2.9-6.79,6.63-13.17,11.12-19.04l-2.11,2.73c4.41-5.71,9.49-10.84,15.18-15.27l-2.73,2.11c3.81-2.93,7.85-5.52,12.12-7.73,2.56-1.33,4.44-3.88,5.52-6.46s1.6-5.94.68-8.79c-.72-2.23-1.89-4.23-3.47-5.96-2.54-2.77-6.01-3.54-9.55-3.95-8.82-1.03-17.86,1.38-25.68,5.36-7.78,3.95-14.51,10.45-19.04,17.87-9.17,15.03-8.1,35.24,1.88,49.64,2.67,3.86,5.65,7.47,9.35,10.38,2.3,1.81,4.57,3.6,7.16,4.97s5.37,2.37,8.08,3.5l-3.22-1.36c1.22.53,2.39,1.11,3.45,1.91l-2.73-2.11c.43.36.8.73,1.16,1.16l-2.11-2.73c.24.34.43.67.61,1.05l-1.36-3.22c.17.45.27.85.35,1.33l-.48-3.59c.04.35.04.71,0,1.06l.48-3.59c-.1.73-.28,1.39-.54,2.08l1.36-3.22c-2.21,5.17-5.96,10.03-9.36,14.47l2.11-2.73c-5.01,6.48-10.65,12.42-16.87,17.74,7.07,5.45,14.14,10.91,21.2,16.36,3.61-6.86,7.22-13.72,10.82-20.58,2.28-4.33,2.52-9.32,0-13.63-2.3-3.93-6.99-6.95-11.66-6.69-7.5.43-14.61,2.33-21.21,5.98-6.25,3.46-11.12,8.34-15.34,14-5.69,7.63-8.82,17.01-11.8,25.96-1.52,4.57-3.01,9.16-4.89,13.6l1.36-3.22c-1.59,3.72-3.45,7.31-5.9,10.54l2.11-2.73c-1.57,2.02-3.34,3.84-5.35,5.42l2.73-2.11c-1.05.8-2.14,1.52-3.29,2.17,6.16,6.16,12.31,12.31,18.47,18.47,6.03-12.48,13.33-24.31,21.78-35.29l-2.11,2.73c3.37-4.35,6.91-8.57,10.62-12.63,2.95-3.24,4.3-6.99,3.71-11.34-.52-3.91-2.72-8.05-6.45-9.86-4.81-2.34-9.43-3.11-14.7-2.05-3.98.8-7.33,2.97-10.38,5.54-5.42,4.55-8.58,12.05-8.42,19.08s2.9,13.84,6.73,19.76c2.83,4.37,6.13,8.41,8.2,13.23l-1.36-3.22c.68,1.69,1.18,3.4,1.44,5.21l-.48-3.59c.15,1.33.16,2.64,0,3.98l.48-3.59c-.2,1.33-.55,2.59-1.04,3.84l1.36-3.22c-.65,1.51-1.48,2.9-2.48,4.2l2.11-2.73c-1.15,1.43-2.45,2.69-3.9,3.83l2.73-2.11c-1.74,1.31-3.61,2.38-5.61,3.24l3.22-1.36c-2.24.91-4.54,1.46-6.94,1.8l3.59-.48c-4.05.49-8.1.3-12.13-.24l3.59.48c-3.86-.55-7.68-1.37-11.48-2.23-3.52-.79-7.23-.49-10.4,1.36-2.8,1.64-5.47,4.85-6.2,8.07-.79,3.46-.62,7.33,1.36,10.4,1.85,2.88,4.63,5.43,8.07,6.2h0Z"/>
    <path d="M752.13,161.18c3.46,0,7.1-1.51,9.55-3.95,2.34-2.34,4.1-6.18,3.95-9.55s-1.3-7.11-3.95-9.55c-2.64-2.42-5.89-3.95-9.55-3.95-3.46,0-7.1,1.51-9.55,3.95s-4.1,6.18-3.95,9.55,1.3,7.11,3.95,9.55c2.64,2.42,5.89,3.95,9.55,3.95h0Z"/>
    <path d="M824.91,162.98c3.46,0,7.1-1.51,9.55-3.95s4.1-6.18,3.95-9.55-1.3-7.11-3.95-9.55-5.89-3.95-9.55-3.95c-3.46,0-7.1,1.51-9.55,3.95s-4.1,6.18-3.95,9.55,1.3,7.11,3.95,9.55,5.89,3.95,9.55,3.95h0Z"/>
    <path d="M835.75,157.35c5.59-.41,11.18-.09,16.77.06,6.55.18,13.05-.12,19.49-1.41,5.28-1.05,10.29-3.14,15.59-4.13,4.89-.91,9.92-1.3,14.62-2.98,3.46-1.23,6.73-2.74,9.74-4.84,2.18-1.52,4.3-3.13,6.77-4.18l-3.22,1.36c1.21-.47,2.43-.77,3.72-.95l-3.59.48c4-.45,8.15-.1,12.15.15s8.37.68,12.54,1.23l-3.59-.48c3.52.47,7.03,1.04,10.52,1.72,3.22.63,6.45,1.28,9.5,2.53l-3.22-1.36c1.46.63,2.81,1.4,4.09,2.35l-2.73-2.11c1.88,1.47,3.48,3.22,4.94,5.09l-2.11-2.73c1.03,1.34,1.97,2.75,3,4.1,2.3,3.04,4.27,5.45,7.59,7.49,5.09,3.12,11.03,2.91,16.76,2.92,8.13.02,16.26.04,24.39.07,3.46,0,7.1-1.51,9.55-3.95s4.1-6.18,3.95-9.55-1.3-7.11-3.95-9.55-5.88-3.94-9.55-3.95c-5.31-.01-10.62-.03-15.93-.04-2.65,0-5.31-.01-7.96-.02-2.5,0-5.06.13-7.55-.12l3.59.48c-.71-.1-1.38-.26-2.05-.52l3.22,1.36c-.58-.27-1.1-.59-1.61-.98l2.73,2.11c-.69-.59-1.29-1.24-1.85-1.94l2.11,2.73c-2.12-2.75-4.03-5.64-6.28-8.3s-5.15-5.12-8.18-6.95c-5.55-3.37-12.05-4.64-18.35-5.75-6.83-1.2-13.73-2.11-20.65-2.65-6.62-.52-13.4-1.02-19.95.34-2.33.48-4.6,1.53-6.71,2.58-1.19.59-2.3,1.32-3.39,2.07-2.35,1.62-4.61,3.32-7.24,4.48l3.22-1.36c-5.22,2.2-10.9,2.6-16.4,3.64-6.09,1.15-11.81,3.64-17.96,4.52l3.59-.48c-9.99,1.34-20.07-.32-30.09.43-3.62.27-6.92,1.32-9.55,3.95-2.34,2.34-4.1,6.18-3.95,9.55s1.3,7.11,3.95,9.55c2.53,2.32,6,4.22,9.55,3.95h0Z"/>
    <path d="M1026.4,153.2c3.22-1.3,6.6-2.01,10.02-2.49l-3.59.48c6.55-.87,13.35-1.55,19.93-.67l-3.59-.48c2.35.34,4.64.9,6.84,1.8l-3.22-1.36c1.7.72,3.28,1.62,4.75,2.73l-2.73-2.11c1.37,1.08,2.58,2.3,3.67,3.67l-2.11-2.73c1.37,1.78,2.47,3.73,3.36,5.79l-1.36-3.22c1.33,3.18,2.15,6.52,2.62,9.93l-.48-3.59c.34,2.6.41,5.21.66,7.82.22,2.36.49,4.74.98,7.06s1.46,4.55,2.46,6.69c3.04,6.52,9.26,10.21,14.74,14.39l-2.73-2.11c1.58,1.23,3,2.56,4.26,4.13l-2.11-2.73c2.41,3.13,4.12,6.72,5.92,10.22,1.9,3.71,3.76,7.44,5.39,11.27l-1.36-3.22c1.6,3.81,2.92,7.71,3.93,11.72s1.87,8.36,3,12.49c2.2,8.12,5.71,16.11,10.5,23.05,2.96,4.29,6.25,8.41,9.97,12.06,2.48,2.44,6.05,3.95,9.55,3.95,3.31,0,7.27-1.47,9.55-3.95s4.12-5.95,3.95-9.55-1.36-6.99-3.95-9.55c-2.07-2.04-4-4.2-5.78-6.49l2.11,2.73c-3.38-4.39-6.17-9.17-8.34-14.26l1.36,3.22c-3.75-8.98-4.72-18.74-7.95-27.88-1.93-5.45-4.34-10.76-6.92-15.93-2.07-4.15-4.05-8.5-6.7-12.32-1.93-2.78-4.01-5.48-6.67-7.6s-5.26-3.92-7.88-5.92l2.73,2.11c-1.37-1.06-2.65-2.2-3.74-3.55l2.11,2.73c-.72-.94-1.3-1.94-1.77-3.02l1.36,3.22c-.66-1.65-1.04-3.36-1.28-5.12l.48,3.59c-.75-5.99-.76-12.03-2.29-17.92-1.71-6.6-4.88-12.67-9.42-17.74-.75-.83-1.56-1.6-2.43-2.3-1.79-1.45-3.63-2.95-5.66-4.06-2.94-1.61-6.17-2.92-9.45-3.67-6.07-1.39-12.31-1.59-18.49-1.11-4.02.31-8.03.79-12.02,1.38-3.2.47-6.35,1.18-9.35,2.4-1.76.42-3.29,1.22-4.59,2.42-1.47.95-2.63,2.21-3.48,3.79-1.69,2.89-2.41,7.16-1.36,10.4,1.06,3.27,3.08,6.42,6.2,8.07s7.11,2.69,10.4,1.36h0Z"/>
    <path d="M1027.29,148.73c-1.46,6.47-1.11,13.06.76,19.42,1.57,5.33,4.11,10.35,6.28,15.45l-1.36-3.22c.98,2.34,2.08,4.78,2.49,7.3l-.48-3.59c.07.56.09,1.1.04,1.66l.48-3.59c-.05.32-.12.6-.22.91l1.36-3.22c-.13.3-.26.53-.45.79l2.11-2.73c-.13.16-.28.31-.45.44l2.73-2.11c-1.03.69-1.97,1.2-2.99,1.99-1.73,1.34-3.13,2.81-4.28,4.72s-1.66,3.98-1.96,6.21-.24,4.3.29,6.68c.72,3.19,2.71,6.4,5.03,8.67,1.75,1.71,3.83,3.11,5.95,4.32,3.08,1.76,6.17,3.51,9.26,5.25,5.65,3.18,11.67,4.99,18.13,3.32,3.25-.84,6.38-3.32,8.07-6.2s2.41-7.16,1.36-10.4-3.08-6.42-6.2-8.07-6.79-2.29-10.4-1.36c-.27.08-.55.14-.83.18l3.59-.48c-.57.05-1.1.05-1.67-.01l3.59.48c-.86-.15-1.67-.4-2.48-.72l3.22,1.36c-2.56-1.12-4.95-2.65-7.38-4.03s-4.79-2.52-6.96-4.09l2.73,2.11c-.52-.4-.98-.83-1.41-1.32l2.11,2.73c-.3-.38-.54-.77-.75-1.2l1.36,3.22c-.16-.42-.27-.82-.33-1.26l.48,3.59c-.03-.33-.03-.64,0-.97l-.48,3.59c.05-.32.12-.6.23-.91l-1.36,3.22c.14-.3.28-.53.47-.79l-2.11,2.73c.14-.16.29-.3.46-.43l-2.73,2.11c1.62-1.04,3.14-1.8,4.6-3.25,1.87-1.86,3.61-4.68,4.23-7.27.9-3.78.78-7.6-.37-11.32-1.61-5.19-4.07-10.08-6.19-15.07l1.36,3.22c-1.42-3.38-2.63-6.83-3.16-10.48l.48,3.59c-.25-1.94-.3-3.87-.06-5.82l-.48,3.59c.09-.6.2-1.18.33-1.77.79-3.52.49-7.24-1.36-10.4-1.64-2.8-4.85-5.47-8.07-6.2-3.46-.79-7.33-.62-10.4,1.36-2.88,1.86-5.43,4.63-6.2,8.07h0Z"/>
    <path d="M1067.81,217.93l.34.03-3.59-.48.33.09-3.22-1.36c.22.08.42.18.6.32l-2.73-2.11c.19.14.36.3.51.48l-2.11-2.73c.23.3.39.57.54.91l-1.36-3.22c.1.24.17.5.21.76l-.48-3.59c.09.74.06,1.44-.02,2.17l.48-3.59c-1.3,8.99-2.9,17.95-4.36,26.92-.87,5.37-2.13,10.87-2.36,16.3-.3,7.08,2.4,13.9,7.18,19.06,2.3,2.48,6.22,3.95,9.55,3.95s7.27-1.47,9.55-3.95,4.12-5.95,3.95-9.55-1.44-6.83-3.95-9.55c-.28-.3-.53-.6-.78-.91l2.11,2.73c-.56-.77-1.02-1.56-1.41-2.42l1.36,3.22c-.46-1.13-.77-2.29-.94-3.5l.48,3.59c-.19-1.68-.09-3.35.13-5.03l-.48,3.59c1.12-8.1,2.6-16.17,3.91-24.25.66-4.06,1.34-8.11,1.97-12.18.3-1.9.75-3.84.71-5.77-.06-3.09-.71-5.71-2.12-8.43-.8-1.53-1.89-2.94-3.16-4.12-2.03-1.88-2.74-2.18-4.94-3.11-2.07-.88-3.41-1.06-5.87-1.28-3.26-.29-7.31,1.71-9.55,3.95-2.34,2.34-4.1,6.18-3.95,9.55s1.3,7.11,3.95,9.55l2.73,2.11c2.11,1.22,4.38,1.84,6.81,1.84h0Z"/>
    <path d="M1137.24,291.5c.38-.14.77-.23,1.17-.28l-3.59.48c.38-.04.76-.03,1.14.03l-3.59-.48c1.31.31.77.04-1.61-.83,1.14.69.72.33-1.26-1.08.31.28.61.58.88.91-1.33-1.82-1.72-2.29-1.15-1.41,1.35,2.71-.69-2.9-.09-.52.22.87.43,1.69.56,2.58l-.48-3.59c.75,6.32.77,12.68,4.18,18.3s9.42,9.49,16.12,10.39c8.39,1.13,15.92-2.37,24.06-3.5l-3.59.48c1.48-.18,2.95-.23,4.44-.08l-3.59-.48c.79.11,1.52.37,2.29.52-2.49-.47-3.08-1.32-1.5-.58,1.66.79-2.18-2.12-1.06-.87,1.46,1.63.27-.25-.41-.77.43.33.74,1.13,1,1.59.73,1.25,1.35,2.56,1.99,3.87,1.25,2.56,2.46,5.15,3.61,7.76.29.65.57,1.31.85,1.96.68,1.55-1.13-2.74-.2-.47.6,1.45,1.18,2.9,1.75,4.37,4.12,10.57,8.01,21.72,9.65,32.98l-.48-3.59c.47,3.54.62,7.06.19,10.61l.48-3.59c-.23,1.59-.56,3.16-1.06,4.69-.91,2.77,1.17-2.05.09-.14-.44.78-.86,1.56-1.35,2.3-.6.9-2.55,2.88.02.07-.52.57-.99,1.21-1.47,1.81-1.69,2.09-3.44,4.19-4.88,6.48-5.22,8.28-5.85,18.09-4.25,27.49,2.61,15.31,13.35,26.28,21.25,38.94,1.11,1.77,2.15,3.59,3.07,5.47.26.52,1.51,3.35.63,1.27-.8-1.88-.23-.54-.08-.14.22.62.46,1.23.67,1.86,1.31,3.84,2.15,7.81,2.71,11.82l-.48-3.59c1.87,14.42,0,28.95.4,43.42.22,7.95,1.12,15.99,3.14,23.69,1.8,6.88,4.38,13.51,6.84,20.17,2.73,7.39,5.31,14.87,6.45,22.7l-.48-3.59c.57,4.31.66,8.61.11,12.93l.48-3.59c-1.16,7.85-3.87,15.34-4.24,23.34-.44,9.63,3.51,17.88,9.39,25.19,4.03,5.01,8.99,9.23,13.52,13.77,2.21,2.22,4.39,4.48,6.46,6.83.99,1.12,1.92,2.28,2.88,3.43s-1.1-1.39-.97-1.27c.25.23.46.61.66.89.51.69,1.01,1.39,1.49,2.11,1.03,1.52,1.99,3.08,2.87,4.69.41.75.8,1.51,1.17,2.28.16.33.3.67.46,1,.74,1.48-1.05-2.77-.51-1.2,1.21,3.49,2.16,6.91,2.68,10.57l-.48-3.59c2.23,17.21-1.27,35.71,8.95,51.05,4.99,7.49,11.54,12.84,18.62,18.23,1.26.96,2.53,1.91,3.79,2.86.81.61,3.39,2.84-.04-.04.69.58,1.42,1.12,2.12,1.69,2.77,2.28,5.39,4.73,7.7,7.48,2.11,2.51,6.39,3.95,9.55,3.95s7.27-1.47,9.55-3.95c5.3-5.78,4.86-13.3,0-19.09-2.97-3.54-6.45-6.55-10.09-9.39-2.51-1.96-5.05-3.89-7.6-5.81-.45-.34-.9-.68-1.35-1.02-2.09-1.57,2.63,2.08.59.46-.88-.7-1.76-1.39-2.62-2.11-1.7-1.42-3.35-2.91-4.88-4.51-.75-.79-1.4-1.71-2.18-2.47,2.48,2.4,1.39,1.85.71.9-.32-.45-.63-.91-.93-1.37-.63-.99-1.17-2.03-1.72-3.07-1.28-2.41,1.03,3.03.18.47-.2-.59-.42-1.17-.61-1.76-.79-2.5-1.29-5.07-1.65-7.66l.48,3.59c-1.8-14.29.58-29.22-4.88-42.93s-15.87-25.08-26.69-35.57c-2.65-2.57-5.21-5.17-7.67-7.91-1.13-1.26,1.66,2.33.71.93-.28-.42-.59-.82-.86-1.24-.48-.74-.9-1.5-1.34-2.26-.23-.39-.75-1.68.04.26.89,2.17.03.02-.12-.49-.31-1.02-.52-2.05-.69-3.1l.48,3.59c-.29-2.41-.22-4.78.08-7.18l-.48,3.59c1.17-8.21,3.95-16.01,4.34-24.37.37-7.88-1.14-15.97-3.36-23.51-4.04-13.73-10.61-26.64-12.66-40.92l.48,3.59c-2.17-16.2.42-32.51-.68-48.75-.67-9.9-2.6-19.12-6.55-28.22-3.21-7.39-8.14-13.75-12.81-20.24-2.5-3.49-4.97-7.04-6.95-10.85-.5-.96-1.19-2.07-1.48-3.11-.04-.16,1.09,2.85.63,1.44-.2-.61-.45-1.2-.65-1.81-.73-2.17-1.26-4.39-1.61-6.65l.48,3.59c-.33-2.47-.4-4.9-.13-7.38l-.48,3.59c.15-1.09.34-2.16.62-3.22.12-.45.23-1.4.55-1.74-.03.04-1.56,3.18-.5,1.19.48-.9.96-1.78,1.53-2.63.21-.31,1.77-2.39.33-.51s.35-.39.65-.76c4.13-5.08,7.65-10.04,9.34-16.48,2.91-11.04.71-22.59-2.3-33.35-3.05-10.89-7.01-21.46-11.52-31.82-4.41-10.15-9.48-22.47-21.64-24.94-5.5-1.12-10.72-.64-16.17.6-3.62.83-7.16,1.99-10.84,2.51l3.59-.48c-1.41.17-2.8.23-4.21.07l3.59.48c-.72-.11-1.42-.44-2.13-.53,3.52.46,2.86,1.52,1.66.57.15.12,2.96,2.55,1.48,1.1-.74-.72-1.03-1.69.79,1.11-1.19-1.83.77,2.61.37,1.1-.33-1.25-.62-2.42-.79-3.7l.48,3.59c-.72-6.31-.82-12.51-4.4-18.04-4.8-7.42-13.38-12.17-22.3-9.47-6.75,2.05-11.71,9.54-9.43,16.61,2.21,6.81,9.37,11.62,16.61,9.43h0Z"/>
    <path d="M1278.58,710.86c3.46,0,7.1-1.51,9.55-3.95s4.1-6.18,3.95-9.55-1.3-7.11-3.95-9.55-5.89-3.95-9.55-3.95c-3.46,0-7.1,1.51-9.55,3.95s-4.1,6.18-3.95,9.55,1.3,7.11,3.95,9.55,5.89,3.95,9.55,3.95h0Z"/>
    <path d="M1271.05,706.63c.69.85,1.37,1.71,2.04,2.57l-2.11-2.73c6.93,9.01,12.65,18.9,17.08,29.36l-1.36-3.22c4.67,11.12,7.86,22.81,9.48,34.75l-.48-3.59c.93,6.99,1.33,14.04,1.14,21.08s-1.09,13.34-1.86,20c-.37,3.2-.68,6.41-.78,9.63-.13,4.29.29,8.45.94,12.7.61,3.98,2.03,7.72,3.79,11.33.9,1.83,2.06,3.42,3.31,5.03s2.51,3.22,4.08,4.58c3.85,3.32,7.97,5.72,12.48,7.96,3.39,1.68,6.66,3.48,9.67,5.78l-2.73-2.11c3.27,2.53,6.18,5.46,8.72,8.72l-2.11-2.73c2.59,3.38,4.75,7.06,6.44,10.98l-1.36-3.22c1.7,4.04,2.88,8.26,3.48,12.61l-.48-3.59c.32,2.48.45,4.98.37,7.48-.1,3.4,1.58,7.17,3.95,9.55s6.18,4.1,9.55,3.95,7.11-1.3,9.55-3.95,3.84-5.85,3.95-9.55c.32-10.86-2.62-21.79-7.82-31.29-5.15-9.41-13-17.59-22.21-23.1-4.64-2.78-9.81-4.62-14.14-7.92l2.73,2.11c-1.49-1.17-2.81-2.48-3.97-3.98l2.11,2.73c-1.11-1.48-2.01-3.06-2.75-4.75l1.36,3.22c-1.04-2.47-1.67-5.07-2.03-7.72l.48,3.59c-1.04-8.05.19-16.19,1.18-24.18,1.08-8.76,1.44-17.55.83-26.36-1.38-19.99-6.59-39.25-15.43-57.24-4.87-9.92-11.04-19-18-27.57-2.05-2.52-6.44-3.95-9.55-3.95-3.31,0-7.27,1.47-9.55,3.95s-4.12,5.95-3.95,9.55l.48,3.59c.64,2.29,1.8,4.27,3.47,5.96h0Z"/>
    <path d="M1265.8,712.2c-3.13-2.28-6.26-4.55-9.39-6.83-1.55-.99-3.22-1.52-5.02-1.6-1.79-.4-3.59-.32-5.38.24-1.76.42-3.29,1.22-4.59,2.42-1.47.95-2.63,2.21-3.48,3.79l-1.36,3.22c-.64,2.39-.64,4.79,0,7.18l1.36,3.22c1.2,2.03,2.81,3.64,4.84,4.84,3.13,2.28,6.26,4.55,9.39,6.83,1.55.99,3.22,1.52,5.02,1.6,1.79.4,3.59.32,5.38-.24,1.76-.42,3.29-1.22,4.59-2.42,1.47-.95,2.63-2.21,3.48-3.79l1.36-3.22c.64-2.39.64-4.79,0-7.18l-1.36-3.22c-1.2-2.03-2.81-3.64-4.84-4.84h0Z"/>
    <path d="M1329.43,828.52c4.61,10.02,9.22,20.05,13.83,30.07,1.18,2.57,3.98,4.48,6.46,5.52,2.68,1.13,5.94,1.6,8.79.68,2.23-.72,4.23-1.89,5.96-3.47,2.2-2.02,4.33-6.49,3.95-9.55-.63-5.17-1.76-10.01-4.8-14.36s-6.41-7.42-10.69-10.48c-6.22-4.44-13.66-6.7-20.65-9.6l3.22,1.36c-3.53-1.49-6.96-3.16-10.04-5.47l2.73,2.11c-1.47-1.16-2.81-2.43-3.99-3.88l2.11,2.73c-.39-.5-.75-1.01-1.1-1.53-5.08,6.61-10.16,13.22-15.25,19.83,3.91.98,7.72,2.25,11.43,3.82l-3.22-1.36c6.27,2.71,12.14,6.2,17.55,10.36l-2.73-2.11c5.89,4.59,11.14,9.89,15.71,15.78l-2.11-2.73c4.66,6.09,8.54,12.72,11.54,19.78l-1.36-3.22c2.86,6.87,4.85,14.04,5.85,21.41l-.48-3.59c.85,6.73.83,13.48-.06,20.2l.48-3.59c-1.38,9.69-4.22,19.08-6,28.7-1.03,5.56-1.85,11.24-1.94,16.9-.08,5.05.41,10.08-.17,15.11l.48-3.59c-.46,3.27-1.48,6.32-2.75,9.36l1.36-3.22c-3.54,8.34-7.3,16.18-7.08,25.48.21,8.76,3.14,16.92,7.05,24.66,3.18,6.29,7.13,12.13,10.71,18.19,3.75,6.35,6.91,13.01,9.78,19.8l-1.36-3.22c5.94,14.15,10.81,28.72,17.08,42.74s14.22,25.96,22.91,38.02c17.65,24.53,34.68,49.35,50.13,75.34,8.72,14.67,17,29.61,24.86,44.76,3.25,6.28,12.56,8.66,18.47,4.84,6.4-4.13,8.32-11.75,4.84-18.47-11.5-22.2-23.94-43.91-37.29-65.04-6.75-10.68-13.72-21.22-20.93-31.6s-14.36-19.88-21.37-29.94c-7.96-11.42-14.85-23.27-20.28-36.1l1.36,3.22c-6.04-14.39-10.96-29.21-17.39-43.43-2.95-6.53-6.36-12.76-10.11-18.86-3.68-5.98-7.45-11.92-10.19-18.41l1.36,3.22c-1.31-3.21-2.32-6.49-2.83-9.93l.48,3.59c-.32-2.51-.36-4.98-.07-7.49l-.48,3.59c.45-3.17,1.45-6.15,2.67-9.1l-1.36,3.22c1.61-3.81,3.41-7.56,4.82-11.45,1.5-4.14,2.15-8.57,2.38-12.95.38-7.04-.31-13.96.63-20.99l-.48,3.59c1.94-13.58,6.35-26.62,7.63-40.34.98-10.51-.28-21.44-3.1-31.59-6.01-21.61-19.32-40.3-37.02-53.87-9.49-7.27-20.61-12.64-32.21-15.54-5.32-1.33-10.84.5-14.19,4.84-3.13,4.05-4.06,10.52-1.06,14.99,3.9,5.81,9.06,10.37,15.29,13.57,5.43,2.79,11.24,4.72,16.85,7.09l-3.22-1.36c3.45,1.5,6.75,3.28,9.73,5.59l-2.73-2.11c1.57,1.27,3,2.65,4.26,4.24l-2.11-2.73c.94,1.26,1.71,2.57,2.32,4.02l-1.36-3.22c.42,1.11.72,2.23.91,3.4l-.48-3.59.07.6c8.39-2.27,16.77-4.54,25.16-6.81-4.61-10.02-9.22-20.05-13.83-30.07-1.33-2.9-5.11-5.39-8.07-6.2-3.23-.89-7.53-.49-10.4,1.36s-5.42,4.63-6.2,8.07c-.85,3.73-.23,6.94,1.36,10.4h0Z"/>
    <path d="M1511.62,1276.6c3.46,0,7.1-1.51,9.55-3.95s4.1-6.18,3.95-9.55-1.3-7.11-3.95-9.55-5.89-3.95-9.55-3.95c-3.46,0-7.1,1.51-9.55,3.95s-4.1,6.18-3.95,9.55,1.3,7.11,3.95,9.55,5.89,3.95,9.55,3.95h0Z"/>
  </g>
</svg>