<?xml version="1.0" encoding="UTF-8"?>
<svg id="Calque_2" xmlns="http://www.w3.org/2000/svg" viewBox="0 0 346.69 253.18">
  <defs>
    <style>
      .cls-1 {
        fill: #fff;
      }
    </style>
  </defs>
  <g id="Calque_1-2" data-name="Calque_1">
    <g>
      <g>
        <path class="cls-1" d="M44.99,118.2c-34.4,10.08-53.77,54.35-37.84,86.46,15.93,32.11,62.9,43.45,91.74,22.16,5.66,9.91,14.84,17.76,25.5,21.81,15.96,6.06,35.26,3.01,47.96-8.4,12.7-11.41,17.73-30.91,11.3-46.72,2.57,12.86,18.46,17.33,31.52,18.54,23.25,2.14,46.7,2.03,69.92-.33,18.24-1.86,37.98-6,49.63-20.16,13.98-17,11.26-41.84,6.71-63.38-1.77-8.35-4.05-17.28-10.58-22.78-6.53-5.5-18.62-4.88-21.66,3.1,13.79,3.48,26.63-12.28,24.82-26.39-1.81-14.11-13.42-25.03-25.82-32-26.05-14.64-58.74-16.82-86.5-5.77-.81-16.13-13.6-29.74-28.44-36.11-14.84-6.38-31.47-6.85-47.62-6.69-6.56.06-13.64.39-18.8,4.45-5.16,4.06-6.53,13.3-.95,16.76,2.89,5.68,12.67-.82,10.77-6.9-1.91-6.08-9.15-8.49-15.46-9.34-31.08-4.21-63.96,9.08-83.39,33.71-19.43,24.63-24.7,59.69-13.38,88.94"/>
        <path d="M44.59,116.75c-13.76,4.1-25.29,13.5-33.13,25.41S-.67,168.68.09,183.01s6.72,27.71,17.02,37.65c10.12,9.77,23.57,15.89,37.45,17.83s28.56-.25,40.74-7.49c1.5-.89,2.94-1.86,4.35-2.89l-2.05-.54c9.54,16.5,27.85,26.76,46.97,25.5,9.15-.61,18.23-3.64,25.61-9.15s12.46-12.81,15.35-21.27c3.25-9.52,3.32-20.16-.42-29.55-.7-1.77-3.3-1.13-2.89.8,1.67,7.88,8.12,12.87,15.25,15.74,8.73,3.51,18.31,4.07,27.59,4.67,12.31.79,24.65.96,36.98.5,11.13-.42,22.33-1.18,33.34-2.92,18.33-2.9,37.35-10.12,45.92-27.87,8.4-17.4,5.43-38.07,1.58-56.26-1.86-8.8-4.41-18.89-12.19-24.39-5.68-4.02-14.76-4.46-20.09.42-1.3,1.19-2.2,2.67-2.86,4.29-.3.73.33,1.67,1.05,1.85,10.36,2.46,19.94-4.66,24.22-13.75,2.29-4.86,3.17-10.16,2.3-15.48s-3.32-10.67-6.6-15.12c-7.06-9.58-17.45-16.27-28.23-21-11.63-5.11-24.16-8.01-36.85-8.61-14.4-.69-28.93,1.62-42.35,6.91l1.9,1.45c-.71-12.3-7.83-23.04-17.4-30.44-10.98-8.49-24.67-11.96-38.28-13.21C159.97,0,152.38-.06,144.81.04c-6.45.09-13.45.56-18.75,4.64-3.91,3.01-5.98,8.36-5.07,13.22.21,1.1.61,2.2,1.19,3.17.7,1.17,1.7,1.79,2.59,2.74.54.58.99,1.37,1.8,1.86s1.86.75,2.83.74c4.28-.02,8.43-4,8.91-8.18.61-5.31-4.43-9.34-8.79-11.15-5.44-2.25-11.64-2.68-17.47-2.84-6.31-.17-12.63.35-18.84,1.47-24.8,4.48-47.72,19.05-61.44,40.3s-18.34,49.38-11.8,74.33c.82,3.12,1.81,6.18,2.97,9.19.68,1.78,3.59,1.01,2.89-.8-8.45-22.02-7.63-47.24,1.87-68.81,9.41-21.37,27.25-37.98,48.97-46.42,10.61-4.12,21.95-6.34,33.34-6.29,5.49.02,11.27.31,16.55,1.98,3.72,1.17,10.03,4.59,8.61,9.47-.78,2.67-5.48,6.84-7.86,3.61-.61-.83-1.5-1.31-2.15-2.12-.7-.88-1.11-1.96-1.3-3.06-.38-2.23.13-4.64,1.17-6.62,2.67-5.09,8.78-6.72,14.1-7.2,6.55-.59,13.28-.38,19.85-.14,13.09.47,26.73,2.29,38.34,8.75,9.6,5.34,18.05,13.88,21.4,24.54.81,2.57,1.29,5.2,1.44,7.89.05.87.93,1.83,1.9,1.45,22.08-8.71,47.03-9.15,69.48-1.47,10.72,3.67,21.29,9.13,29.49,17.07,7.27,7.04,13.35,17.32,11.18,27.8s-11.48,20.53-22.65,17.88l1.05,1.85c2.62-6.49,11.71-6.71,17.04-3.84,7.72,4.16,10.26,14.13,11.99,22.01,3.74,17.05,6.85,36.37.1,53.08-3.29,8.14-9.17,14.85-16.63,19.43-7.45,4.57-15.96,7.1-24.5,8.72-9.98,1.9-20.2,2.67-30.33,3.23-11.32.62-22.68.71-34.01.27-9.62-.38-19.6-.6-29.01-2.85-6.83-1.63-14.5-4.57-18.29-10.89-.92-1.54-1.52-3.19-1.89-4.95l-2.89.8c6.25,15.66,1.33,34.53-11.3,45.6-13.12,11.49-33.16,13.78-48.87,6.52-9.15-4.23-16.81-11.24-21.86-19.97-.38-.65-1.4-1.02-2.05-.54-21.91,16.04-54.11,13.26-74.88-3.44-10.67-8.58-17.8-20.67-19.71-34.26s1.12-27.39,7.57-39.23c7.35-13.51,19.39-24.51,34.28-28.94,1.85-.55,1.06-3.45-.8-2.89h0Z"/>
      </g>
      <g>
        <path d="M66.85,96.71c10.95,2.37,21.79,5.28,32.83,7.26s22.44,3.14,33.55,1.3c5.19-.86,10.31-2.44,14.97-4.89,2.46-1.3,4.81-2.85,6.98-4.6,1.91-1.54,3.76-3.12,4.81-5.37,3.03-6.47-1.14-16.73-9.08-16.72-1.99,0-3.84.71-5.46,1.85-1,.7-1.47,1.3-1.57,2.53-.06.71-.05,1.42-.02,2.12.11,2.46.68,4.91,1.94,7.05,2.51,4.28,7,6.8,11.69,8.04,12.2,3.24,25.99.43,37.52-4.01,5.95-2.29,11.73-5.33,16.69-9.37,4.16-3.39,7.98-7.78,9.49-13.04.35-1.21.58-2.45.68-3.7.19-2.4-3.53-2.68-3.73-.28-.42,5.29-3.87,9.87-7.96,13.42-5.12,4.44-11.33,7.59-17.65,9.94-6.61,2.46-13.68,4.07-20.73,4.51-5.79.36-12.01.04-17.29-2.51-.9-.44-2.25-1.28-3.19-2.09.14.12-.35-.33-.47-.44-.24-.24-.47-.49-.69-.74-.49-.56-.7-.86-.97-1.31-1.44-2.47-1.8-4.96-1.53-7.89l-.63,1.26c1.87-1.53,4.19-2.17,6.37-.86,2.05,1.24,3.34,3.54,3.76,5.86.54,2.95-.46,5.44-2.64,7.41-2.99,2.71-6.37,4.93-10.04,6.62-15.18,6.98-33.13,4.52-48.94,1.36-9.21-1.84-18.29-4.23-27.46-6.22-2.32-.5-3.57,3.02-1.23,3.53h0Z"/>
        <path d="M107.7,102.03c-6.77,2.28-13.81,5.17-19.13,10.11-3.1,2.88-5.69,6.74-5.36,11.14.67,9.02,11.76,11.51,19.05,10.95,6.86-.52,13.3-3.39,18.94-7.2.84-.57.77-1.95.16-2.64-.74-.84-1.8-.73-2.64-.16-4.5,3.04-9.58,5.26-14.96,6.08-3.9.59-7.95.41-11.59-1.16-.19-.08-.38-.17-.57-.26-.32-.15-.05-.03.01,0-.09-.05-.18-.09-.27-.14-.39-.22-.77-.44-1.14-.7-.31-.22-.61-.45-.91-.69-.24-.19.2.21-.16-.15-.14-.15-.29-.28-.43-.43-.23-.24-.44-.5-.64-.76-.11-.14-.32-.49-.1-.13-.11-.18-.22-.36-.33-.55-.16-.3-.29-.61-.43-.92-.19-.43.02.12-.04-.12-.05-.18-.1-.36-.14-.55-.07-.33-.12-.67-.15-1.01,0,0-.01.3,0-.08.01-.22,0-.44.02-.66.01-.18.04-.36.06-.53.01-.13.13-.66.03-.2.09-.4.2-.79.34-1.17.35-.98.44-1.13,1.03-2.05.56-.87,1.14-1.57,1.71-2.17,4.84-5.07,11.82-7.99,18.34-10.19.96-.32,1.68-1.11,1.47-2.19-.18-.89-1.23-1.8-2.19-1.47h0Z"/>
        <path d="M202.23,88.44c6.31.5,12.74,1.37,18.68,3.65,1.91.73,3.71,1.6,5.36,2.83.68.5.9.67,1.53,1.38.23.25.43.51.64.78s-.12-.23.09.15c.09.16.19.32.27.49s.37.96.22.46c.09.29.15.58.2.87.01.06.05.56.03.25s0,.19,0,.25c-.01.19-.15,1.02-.03.52-.06.27-.14.54-.24.8-.05.15-.12.29-.18.43-.11.24.16-.23-.1.18-.17.26-.33.53-.52.78-.09.12-.18.24-.28.36-.17.21.2-.22.01,0-.07.08-.14.16-.22.23-2.54,2.59-6.06,4.08-9.71,5.12-6.69,1.9-13.73,2.31-20.64,2.08-2.4-.08-2.68,3.65-.28,3.73,6.83.22,13.81-.13,20.45-1.82,4.33-1.1,8.95-2.76,12.25-5.9,2.31-2.19,3.88-5.32,2.95-8.54-1.12-3.86-4.73-6.27-8.16-7.92-6.77-3.26-14.63-4.3-22.04-4.89-2.4-.19-2.68,3.54-.28,3.73h0Z"/>
        <path d="M118.5,125.39c3.31,18.74,13.61,39.71,33.94,44.11,16.8,3.64,32.63-6.36,40.27-21.07,5.89-11.34,7.32-24.28,6.33-36.88-.19-2.39-3.85-1.65-3.67.72,1.41,17.98-3.09,39.38-19.57,49.53-6.1,3.76-13.15,5.43-20.25,4.48-7.44-1-14.21-4.97-19.31-10.41-7.99-8.5-12.07-19.9-14.07-31.21-.42-2.37-4.08-1.65-3.67.72h0Z"/>
        <path d="M147.19,119.78c2.23,3.11,3.36,7.06,3.22,10.86-.04,1.01.69,1.93,1.72,2s1.96-.71,2-1.72c.18-4.9-1.29-9.63-4.15-13.61-.59-.82-1.94-.78-2.64-.16-.82.72-.75,1.81-.16,2.64h0Z"/>
        <path d="M164.29,115.68c.81,4.1,1.61,8.2,2.42,12.3.19.99,1.2,1.67,2.19,1.47s1.67-1.2,1.47-2.19c-.81-4.1-1.61-8.2-2.42-12.3-.19-.99-1.2-1.67-2.19-1.47-.99.2-1.67,1.2-1.47,2.19h0Z"/>
      </g>
    </g>
  </g>
</svg>