<?xml version="1.0" encoding="UTF-8"?>
<svg id="Calque_1" data-name="Calque 1" xmlns="http://www.w3.org/2000/svg" viewBox="0 0 60 60">
  <defs>
    <style>
      .cls-1 {
        fill: #ffe62e;
      }
    </style>
  </defs>
  <path class="cls-1" d="M55.64,30c0,7-.82,13.4-4.48,18.4-2.19,3-4.34,5.48-7.73,7.29-3.9,2.08-9.17,3.28-13.43,3.28-8.22,0-16.06-3.04-20.75-9.84-3.39-4.91-4.88-12.42-4.88-19.13,0-8.14,1.73-15.69,6.51-20.95C15.49,3.96,23.04,1.03,30,1.03s14.09,2.49,18.72,7.65c4.71,5.25,6.92,13.25,6.92,21.32Z"/>
  <g>
    <path d="M8.67,25.95c2.78.54,5.52,1.2,8.32,1.65s5.69.71,8.5.3c1.31-.19,2.61-.55,3.79-1.11.62-.29,1.22-.65,1.77-1.04.48-.35.95-.71,1.22-1.22.77-1.47-.29-3.8-2.3-3.79-.51,0-.97.16-1.38.42-.25.16-.37.3-.4.57-.01.16-.01.32,0,.48.03.56.17,1.11.49,1.6.64.97,1.77,1.54,2.96,1.83,3.09.74,6.59.1,9.51-.91,1.51-.52,2.97-1.21,4.23-2.13,1.06-.77,2.02-1.77,2.41-2.96.09-.27.15-.56.17-.84.05-.54-.9-.61-.94-.06-.11,1.2-.98,2.24-2.02,3.04-1.3,1.01-2.87,1.72-4.47,2.26-1.68.56-3.47.92-5.25,1.02-1.47.08-3.04,0-4.38-.57-.23-.1-.57-.29-.81-.47.04.03-.09-.07-.12-.1-.06-.05-.12-.11-.18-.17-.12-.13-.18-.19-.25-.3-.37-.56-.46-1.13-.39-1.79l-.16.29c.47-.35,1.06-.49,1.61-.2.52.28.85.8.95,1.33.14.67-.12,1.23-.67,1.68-.76.62-1.61,1.12-2.54,1.5-3.85,1.58-8.4,1.03-12.4.31-2.33-.42-4.64-.96-6.96-1.41-.59-.11-.91.69-.31.8h0Z"/>
    <path d="M19.02,27.15c-1.72.52-3.5,1.17-4.85,2.29-.79.65-1.44,1.53-1.36,2.53.17,2.05,2.98,2.61,4.83,2.49,1.74-.12,3.37-.77,4.8-1.63.21-.13.2-.44.04-.6-.19-.19-.46-.17-.67-.04-1.14.69-2.43,1.19-3.79,1.38-.99.13-2.01.09-2.94-.26-.05-.02-.1-.04-.15-.06-.08-.03-.01,0,0,0-.02-.01-.05-.02-.07-.03-.1-.05-.2-.1-.29-.16-.08-.05-.16-.1-.23-.16-.06-.04.05.05-.04-.03-.04-.03-.07-.06-.11-.1-.06-.06-.11-.11-.16-.17-.03-.03-.08-.11-.03-.03-.03-.04-.06-.08-.08-.13-.04-.07-.07-.14-.11-.21-.05-.1,0,.03-.01-.03-.01-.04-.03-.08-.04-.12-.02-.08-.03-.15-.04-.23,0,0,0,.07,0-.02,0-.05,0-.1,0-.15,0-.04,0-.08.01-.12,0-.03.03-.15,0-.05.02-.09.05-.18.09-.27.09-.22.11-.26.26-.47.14-.2.29-.36.43-.49,1.23-1.15,3-1.81,4.65-2.31.24-.07.43-.25.37-.5-.04-.2-.31-.41-.56-.33h0Z"/>
    <path d="M42.98,24.07c1.6.11,3.23.31,4.73.83.49.17.94.36,1.36.64.17.11.23.15.39.31.06.06.11.12.16.18s-.03-.05.02.03c.02.04.05.07.07.11s.09.22.06.1c.02.07.04.13.05.2,0,.01.01.13,0,.06s0,.04,0,.06c0,.04-.04.23,0,.12-.02.06-.04.12-.06.18-.01.03-.03.07-.05.1-.03.05.04-.05-.03.04-.04.06-.08.12-.13.18-.02.03-.05.05-.07.08-.04.05.05-.05,0,0-.02.02-.04.04-.05.05-.64.59-1.53.93-2.46,1.16-1.69.43-3.48.52-5.23.47-.61-.02-.68.83-.07.85,1.73.05,3.5-.03,5.18-.41,1.1-.25,2.27-.63,3.1-1.34.58-.5.98-1.21.75-1.94-.28-.88-1.2-1.42-2.07-1.8-1.72-.74-3.71-.98-5.59-1.11-.61-.04-.68.8-.07.85h0Z"/>
    <path d="M21.76,32.46c.84,4.25,3.45,9.01,8.6,10.01,4.26.83,8.27-1.44,10.21-4.78,1.49-2.57,1.85-5.51,1.6-8.37-.05-.54-.98-.37-.93.16.36,4.08-.78,8.94-4.96,11.24-1.55.85-3.33,1.23-5.13,1.02-1.89-.23-3.6-1.13-4.89-2.36-2.02-1.93-3.06-4.52-3.57-7.08-.11-.54-1.03-.37-.93.16h0Z"/>
    <path d="M29.03,31.18c.56.71.85,1.6.82,2.46,0,.23.18.44.44.45s.5-.16.51-.39c.05-1.11-.33-2.19-1.05-3.09-.15-.19-.49-.18-.67-.04-.21.16-.19.41-.04.6h0Z"/>
    <path d="M33.36,30.25c.2.93.41,1.86.61,2.79.05.22.3.38.56.33s.42-.27.37-.5c-.2-.93-.41-1.86-.61-2.79-.05-.22-.3-.38-.56-.33s-.42.27-.37.5h0Z"/>
  </g>
</svg>