<?xml version="1.0" encoding="UTF-8"?>
<svg id="Calque_2" xmlns="http://www.w3.org/2000/svg" viewBox="0 0 142.45 160.98">
  <defs>
    <style>
      .cls-1 {
        fill: #ffe62e;
      }
    </style>
  </defs>
  <g id="Calque_1-2" data-name="Calque_1">
    <g>
      <path class="cls-1" d="M142.45,80.49c0,19.45-2.28,37.22-12.44,51.13-6.08,8.32-12.05,15.21-21.48,20.25-10.84,5.79-25.48,9.11-37.31,9.11-22.83,0-44.62-8.46-57.66-27.34C4.14,120,0,99.14,0,80.49c0-22.6,4.81-43.6,18.09-58.22C30.92,8.14,51.89,0,71.23,0s39.15,6.93,52.01,21.26c13.09,14.6,19.22,36.8,19.22,59.23Z"/>
      <g>
        <path d="M11.97,69.23c7.71,1.5,15.34,3.33,23.12,4.58,7.75,1.24,15.8,1.98,23.62.82,3.65-.54,7.26-1.54,10.54-3.08,1.74-.82,3.39-1.8,4.92-2.9,1.35-.97,2.64-1.97,3.39-3.39,2.13-4.08-.8-10.55-6.39-10.54-1.4,0-2.71.45-3.85,1.17-.7.44-1.03.82-1.1,1.59-.04.44-.04.89-.01,1.34.08,1.55.48,3.1,1.36,4.45,1.77,2.7,4.93,4.29,8.23,5.07,8.59,2.04,18.3.27,26.42-2.53,4.19-1.45,8.26-3.36,11.75-5.91,2.93-2.14,5.62-4.91,6.69-8.22.24-.76.41-1.55.48-2.33.13-1.51-2.49-1.69-2.62-.18-.3,3.34-2.73,6.22-5.61,8.46-3.61,2.8-7.98,4.78-12.43,6.27-4.66,1.55-9.63,2.57-14.59,2.85-4.08.23-8.46.03-12.17-1.59-.63-.27-1.58-.8-2.25-1.31.1.08-.25-.21-.33-.28-.17-.15-.33-.31-.49-.47-.34-.36-.49-.54-.68-.83-1.02-1.56-1.27-3.13-1.08-4.98l-.44.8c1.32-.97,2.95-1.37,4.49-.54,1.45.78,2.35,2.23,2.64,3.69.38,1.86-.32,3.43-1.86,4.68-2.11,1.71-4.49,3.11-7.07,4.17-10.69,4.4-23.33,2.85-34.46.86-6.48-1.16-12.88-2.67-19.34-3.92-1.64-.32-2.52,1.9-.86,2.22h0Z"/>
        <path d="M40.73,72.59c-4.77,1.44-9.73,3.26-13.47,6.37-2.18,1.81-4.01,4.25-3.78,7.02.47,5.68,8.28,7.26,13.41,6.91,4.83-.33,9.36-2.14,13.33-4.54.59-.36.54-1.23.12-1.66-.52-.53-1.27-.46-1.86-.1-3.17,1.92-6.75,3.32-10.53,3.83-2.75.37-5.59.26-8.16-.73-.14-.05-.27-.11-.4-.16-.22-.09-.03-.02,0,0-.06-.03-.13-.06-.19-.09-.27-.14-.54-.28-.8-.44-.22-.14-.43-.28-.64-.43-.17-.12.14.13-.11-.09-.1-.09-.2-.18-.3-.27-.16-.15-.31-.31-.45-.48-.08-.09-.23-.31-.07-.08-.08-.11-.16-.23-.23-.35-.11-.19-.2-.38-.3-.58-.13-.27.01.08-.03-.08-.03-.12-.07-.23-.1-.35-.05-.21-.08-.42-.1-.63,0,0,0,.19,0-.05,0-.14,0-.28.02-.41,0-.11.03-.22.04-.34.01-.08.09-.42.02-.13.06-.25.14-.5.24-.74.25-.62.31-.71.73-1.29.4-.55.8-.99,1.2-1.37,3.41-3.2,8.32-5.04,12.91-6.42.67-.2,1.19-.7,1.04-1.38-.12-.56-.87-1.13-1.54-.93h0Z"/>
        <path d="M107.29,64.01c4.44.31,8.97.86,13.15,2.3,1.35.46,2.61,1.01,3.78,1.78.48.32.63.42,1.08.87.16.16.31.32.45.49s-.09-.14.07.09c.07.1.13.2.19.31s.26.61.15.29c.06.18.11.36.14.55,0,.04.03.35.02.16s0,.12,0,.16c0,.12-.11.64-.02.33-.05.17-.1.34-.17.51-.04.09-.08.18-.13.27-.07.15.12-.15-.07.11-.12.17-.23.33-.36.49-.06.08-.13.15-.2.22-.12.14.14-.14,0,0-.05.05-.1.1-.15.15-1.79,1.63-4.26,2.57-6.84,3.23-4.71,1.2-9.66,1.45-14.53,1.31-1.69-.05-1.89,2.3-.2,2.35,4.81.14,9.72-.08,14.4-1.15,3.05-.69,6.3-1.74,8.62-3.72,1.62-1.38,2.73-3.35,2.07-5.38-.79-2.43-3.33-3.95-5.75-4.99-4.77-2.06-10.3-2.71-15.52-3.08-1.69-.12-1.88,2.23-.2,2.35h0Z"/>
        <path d="M48.33,87.31c2.33,11.82,9.58,25.04,23.9,27.81,11.83,2.29,22.98-4.01,28.35-13.29,4.14-7.15,5.15-15.31,4.45-23.25-.13-1.51-2.71-1.04-2.58.45.99,11.34-2.18,24.83-13.78,31.23-4.29,2.37-9.26,3.42-14.26,2.82-5.24-.63-10-3.13-13.6-6.56-5.63-5.36-8.5-12.54-9.91-19.68-.29-1.49-2.88-1.04-2.58.45h0Z"/>
        <path d="M68.53,83.77c1.57,1.96,2.37,4.45,2.27,6.85-.03.64.49,1.21,1.21,1.26s1.38-.45,1.41-1.09c.13-3.09-.91-6.08-2.92-8.58-.41-.52-1.36-.49-1.86-.1-.58.46-.53,1.14-.12,1.66h0Z"/>
        <path d="M80.57,81.19c.57,2.58,1.14,5.17,1.7,7.75.14.62.85,1.05,1.54.93s1.17-.76,1.04-1.38c-.57-2.58-1.14-5.17-1.7-7.75-.14-.62-.85-1.05-1.54-.93s-1.17.76-1.04,1.38h0Z"/>
      </g>
    </g>
  </g>
</svg>