<?xml version="1.0" encoding="UTF-8"?>
<svg id="Calque_1" xmlns="http://www.w3.org/2000/svg" viewBox="0 0 50 50">
  <defs>
    <style>
      .cls-1 {
        fill: #ffe62e;
      }
    </style>
  </defs>
  <path class="cls-1" d="M44.2,25c0,5.24-.61,10.03-3.35,13.78-1.64,2.24-3.25,4.1-5.79,5.46-2.92,1.56-6.87,2.46-10.06,2.46-6.15,0-12.03-2.28-15.54-7.37-2.54-3.68-3.66-9.3-3.66-14.33,0-6.09,1.3-11.75,4.88-15.69,3.46-3.81,9.11-6,14.32-6s10.55,1.87,14.02,5.73c3.53,3.93,5.18,9.92,5.18,15.97Z"/>
  <g>
    <path d="M9.03,21.96c2.08.4,4.14.9,6.23,1.23s4.26.53,6.37.22c.98-.15,1.96-.41,2.84-.83.47-.22.91-.48,1.33-.78.36-.26.71-.53.91-.91.58-1.1-.22-2.84-1.72-2.84-.38,0-.73.12-1.04.31-.19.12-.28.22-.3.43-.01.12-.01.24,0,.36.02.42.13.83.37,1.2.48.73,1.33,1.16,2.22,1.37,2.32.55,4.93.07,7.12-.68,1.13-.39,2.23-.91,3.17-1.59.79-.58,1.52-1.32,1.8-2.22.07-.2.11-.42.13-.63.04-.41-.67-.45-.71-.05-.08.9-.74,1.68-1.51,2.28-.97.76-2.15,1.29-3.35,1.69s-2.6.69-3.93.77c-1.1.06-2.28,0-3.28-.43-.17-.07-.43-.22-.61-.35.03.02-.07-.06-.09-.08-.05-.04-.09-.08-.13-.13-.09-.1-.13-.15-.18-.22-.27-.42-.34-.84-.29-1.34l-.12.21c.36-.26.8-.37,1.21-.15.39.21.63.6.71,1,.1.5-.09.92-.5,1.26-.57.46-1.21.84-1.91,1.12-2.88,1.19-6.29.77-9.29.23-1.75-.31-3.47-.72-5.21-1.06-.44-.09-.68.51-.23.6h0Z"/>
    <path d="M16.78,22.87c-1.29.39-2.62.88-3.63,1.72-.59.49-1.08,1.15-1.02,1.89.13,1.53,2.23,1.96,3.62,1.86,1.3-.09,2.52-.58,3.59-1.22.16-.1.15-.33.03-.45-.14-.14-.34-.12-.5-.03-.85.52-1.82.89-2.84,1.03-.74.1-1.51.07-2.2-.2-.04-.01-.07-.03-.11-.04-.06-.03,0,0,0,0-.02,0-.03-.02-.05-.02-.07-.04-.15-.08-.22-.12-.06-.04-.12-.08-.17-.12-.04-.03.04.04-.03-.02-.03-.02-.06-.05-.08-.07-.04-.04-.08-.08-.12-.13-.02-.02-.06-.08-.02-.02-.02-.03-.04-.06-.06-.09-.03-.05-.06-.1-.08-.16-.04-.07,0,.02,0-.02,0-.03-.02-.06-.03-.09-.01-.06-.02-.11-.03-.17,0,0,0,.05,0-.01,0-.04,0-.07,0-.11,0-.03,0-.06.01-.09,0-.02.02-.11,0-.03.02-.07.04-.13.06-.2.07-.17.08-.19.2-.35.11-.15.22-.27.32-.37.92-.86,2.24-1.36,3.48-1.73.18-.05.32-.19.28-.37-.03-.15-.23-.31-.42-.25h0Z"/>
    <path d="M34.72,20.56c1.2.08,2.42.23,3.55.62.36.12.7.27,1.02.48.13.09.17.11.29.23.04.04.08.09.12.13s-.02-.04.02.03c.02.03.04.06.05.08s.07.16.04.08c.02.05.03.1.04.15,0,.01,0,.1,0,.04s0,.03,0,.04c0,.03-.03.17,0,.09-.01.05-.03.09-.05.14-.01.02-.02.05-.03.07-.02.04.03-.04-.02.03-.03.04-.06.09-.1.13-.02.02-.03.04-.05.06-.03.04.04-.04,0,0-.01.01-.03.03-.04.04-.48.44-1.15.69-1.84.87-1.27.32-2.61.39-3.92.35-.46-.01-.51.62-.05.63,1.3.04,2.62-.02,3.88-.31.82-.19,1.7-.47,2.32-1,.44-.37.74-.9.56-1.45-.21-.66-.9-1.07-1.55-1.35-1.28-.55-2.78-.73-4.18-.83-.46-.03-.51.6-.05.63h0Z"/>
    <path d="M18.83,26.84c.63,3.19,2.58,6.75,6.44,7.5,3.19.62,6.19-1.08,7.64-3.58,1.12-1.93,1.39-4.13,1.2-6.27-.04-.41-.73-.28-.7.12.27,3.06-.59,6.69-3.71,8.42-1.16.64-2.5.92-3.84.76-1.41-.17-2.7-.84-3.67-1.77-1.52-1.44-2.29-3.38-2.67-5.3-.08-.4-.78-.28-.7.12h0Z"/>
    <path d="M24.27,25.88c.42.53.64,1.2.61,1.85,0,.17.13.33.33.34s.37-.12.38-.29c.03-.83-.25-1.64-.79-2.31-.11-.14-.37-.13-.5-.03-.16.12-.14.31-.03.45h0Z"/>
    <path d="M27.52,25.19l.46,2.09c.04.17.23.28.42.25s.32-.2.28-.37c-.15-.7-.31-1.39-.46-2.09-.04-.17-.23-.28-.42-.25s-.32.2-.28.37h0Z"/>
  </g>
</svg>