<?xml version="1.0" encoding="UTF-8"?>
<svg id="Calque_2" xmlns="http://www.w3.org/2000/svg" viewBox="0 0 78.65 57.35">
  <defs>
    <style>
      .cls-1 {
        fill: #fff;
      }

      .cls-2 {
        fill: #ffbbf8;
      }
    </style>
  </defs>
  <g id="Calque_1-2" data-name="Calque_1">
    <g>
      <path class="cls-1" d="M10.04,26.58c-3.1.92-5.69,3.04-7.46,5.72S-.15,38.28.02,41.52s1.51,6.23,3.83,8.47,5.33,3.58,8.46,4.02,6.43-.06,9.16-1.69c.34-.2.67-.42.99-.66l-.27-.07c2.15,3.72,6.26,6.02,10.57,5.73,2.06-.14,4.1-.82,5.76-2.06s2.78-2.87,3.43-4.75c.73-2.15.75-4.53-.1-6.65-.09-.23-.43-.15-.37.1.37,1.74,1.79,2.85,3.37,3.48,1.98.8,4.14.92,6.24,1.06,2.8.18,5.61.22,8.42.11,2.52-.09,5.06-.26,7.55-.66,4.14-.66,8.43-2.27,10.37-6.28s1.21-8.6.35-12.7c-.41-1.96-.97-4.24-2.71-5.47-1.24-.88-3.23-.99-4.4.07-.28.25-.47.57-.61.91-.04.1.04.22.14.24,2.3.55,4.4-1.06,5.35-3.06,1.08-2.3.49-4.83-.98-6.82-1.59-2.16-3.95-3.66-6.37-4.73-2.62-1.15-5.45-1.8-8.32-1.94-3.27-.16-6.56.37-9.6,1.57l.25.19c-.16-2.76-1.77-5.17-3.92-6.83-2.47-1.91-5.55-2.68-8.61-2.97C36.28,0,34.55-.01,32.82,0c-1.43.02-3.02.11-4.2,1.04-.83.65-1.28,1.8-1.09,2.84.11.57.4.87.79,1.26.15.14.23.31.41.42.17.1.37.15.57.15.9,0,1.77-.84,1.88-1.72.14-1.14-.96-2.01-1.89-2.4-1.22-.51-2.63-.6-3.94-.64-1.42-.04-2.85.08-4.25.33-5.61,1.01-10.8,4.3-13.9,9.11s-4.15,11.17-2.67,16.81c.19.71.41,1.41.68,2.09.09.23.46.13.37-.1-1.94-5.05-1.74-10.83.44-15.78,2.16-4.9,6.26-8.7,11.24-10.64,2.43-.94,5.03-1.45,7.63-1.44,1.26,0,2.59.07,3.81.46.93.29,2.41,1.13,2.06,2.34-.22.76-1.42,1.69-2.06.86-.13-.17-.32-.28-.47-.45-.18-.22-.28-.49-.33-.76-.1-.55.03-1.13.28-1.62.63-1.21,2.07-1.6,3.34-1.71,1.49-.13,3.02-.09,4.52-.03,3.01.11,6.14.53,8.8,2.01,2.22,1.23,4.17,3.21,4.94,5.68.19.6.3,1.21.33,1.84,0,.11.12.24.25.19,5.05-1.99,10.76-2.09,15.9-.34,2.47.84,4.89,2.1,6.78,3.92,1.7,1.64,3.09,4.03,2.58,6.47s-2.72,4.8-5.34,4.17l.14.24c.64-1.57,2.79-1.67,4.1-.96,1.79.97,2.39,3.26,2.8,5.1.86,3.91,1.57,8.33.02,12.16-.76,1.89-2.12,3.45-3.85,4.51s-3.66,1.63-5.61,2c-2.29.44-4.63.61-6.95.74-2.58.14-5.16.16-7.74.06-2.2-.09-4.49-.14-6.64-.65-1.59-.38-3.37-1.07-4.25-2.55-.22-.36-.36-.75-.45-1.16l-.37.1c1.44,3.61.3,7.98-2.61,10.52s-7.67,3.19-11.3,1.51c-2.11-.97-3.87-2.59-5.03-4.6-.05-.08-.18-.13-.27-.07-5.04,3.69-12.45,3.04-17.23-.81-2.45-1.97-4.08-4.75-4.53-7.87s.25-6.31,1.74-9.05c1.69-3.11,4.47-5.64,7.89-6.66.24-.07.14-.45-.1-.37h0Z"/>
      <g>
        <path class="cls-2" d="M15.07,21.87c2.49.54,4.96,1.2,7.47,1.65s5.11.71,7.64.3c1.18-.2,2.35-.55,3.41-1.11.56-.3,1.1-.65,1.59-1.05.44-.35.86-.71,1.1-1.22.69-1.47-.26-3.81-2.07-3.81-.45,0-.88.16-1.24.42-.23.16-.33.3-.36.58-.01.16-.01.32,0,.48.03.56.16,1.12.44,1.61.57.97,1.59,1.55,2.66,1.83,2.78.74,5.92.1,8.54-.91,1.36-.52,2.67-1.21,3.8-2.13.95-.77,1.82-1.77,2.16-2.97.08-.27.13-.56.15-.84.04-.55-.8-.61-.85-.06-.1,1.21-.88,2.25-1.81,3.05-1.17,1.01-2.58,1.73-4.02,2.26s-3.11.93-4.72,1.03c-1.32.08-2.74,0-3.94-.57-.2-.1-.51-.29-.73-.47.03.03-.08-.07-.11-.1-.05-.05-.11-.11-.16-.17-.11-.13-.16-.2-.22-.3-.33-.56-.41-1.13-.35-1.8l-.14.29c.43-.35.95-.49,1.45-.2.47.28.76.81.86,1.33.12.67-.1,1.24-.6,1.69-.68.62-1.45,1.12-2.29,1.51-3.46,1.59-7.54,1.03-11.14.31-2.1-.42-4.16-.96-6.25-1.42-.53-.11-.81.69-.28.8h0Z"/>
        <path class="cls-2" d="M24.37,23.08c-1.54.52-3.15,1.18-4.36,2.3-.71.66-1.3,1.54-1.22,2.54.15,2.05,2.68,2.62,4.34,2.49,1.56-.12,3.03-.77,4.31-1.64.19-.13.18-.44.04-.6-.17-.19-.41-.17-.6-.04-1.02.69-2.18,1.2-3.41,1.38-.89.13-1.81.09-2.64-.26-.04-.02-.09-.04-.13-.06-.07-.03-.01,0,0,0-.02-.01-.04-.02-.06-.03-.09-.05-.18-.1-.26-.16-.07-.05-.14-.1-.21-.16-.05-.04.04.05-.04-.03-.03-.03-.07-.06-.1-.1-.05-.06-.1-.11-.15-.17-.02-.03-.07-.11-.02-.03-.03-.04-.05-.08-.07-.13-.04-.07-.07-.14-.1-.21-.04-.1,0,.03,0-.03-.01-.04-.02-.08-.03-.13-.02-.08-.03-.15-.03-.23,0,0,0,.07,0-.02,0-.05,0-.1,0-.15,0-.04,0-.08.01-.12,0-.03.03-.15,0-.05.02-.09.05-.18.08-.27.08-.22.1-.26.24-.47.13-.2.26-.36.39-.49,1.1-1.15,2.69-1.82,4.17-2.32.22-.07.38-.25.34-.5-.04-.2-.28-.41-.5-.34h0Z"/>
        <path class="cls-2" d="M45.9,19.99c1.44.11,2.9.31,4.25.83.44.17.84.36,1.22.64.15.11.2.15.35.31.05.06.1.12.14.18s-.03-.05.02.03c.02.04.04.07.06.11s.08.22.05.1c.02.07.03.13.05.2,0,.01.01.13,0,.06s0,.04,0,.06c0,.04-.03.23,0,.12-.01.06-.03.12-.06.18-.01.03-.03.07-.04.1-.02.05.04-.05-.02.04-.04.06-.08.12-.12.18-.02.03-.04.05-.06.08-.04.05.05-.05,0,0-.02.02-.03.04-.05.05-.58.59-1.38.93-2.21,1.17-1.52.43-3.13.53-4.7.47-.55-.02-.61.83-.06.85,1.56.05,3.14-.03,4.66-.42.98-.25,2.04-.63,2.79-1.34.53-.5.88-1.21.67-1.94-.25-.88-1.08-1.43-1.86-1.8-1.54-.74-3.33-.98-5.02-1.11-.55-.04-.61.81-.06.85h0Z"/>
        <path class="cls-2" d="M26.83,28.4c.75,4.27,3.1,9.04,7.73,10.04,3.83.83,7.43-1.45,9.17-4.8,1.34-2.58,1.67-5.53,1.44-8.4-.04-.54-.88-.38-.83.16.32,4.09-.7,8.97-4.46,11.28-1.39.86-3,1.24-4.61,1.02-1.69-.23-3.23-1.13-4.4-2.37-1.82-1.94-2.75-4.53-3.2-7.11-.1-.54-.93-.38-.83.16h0Z"/>
        <path class="cls-2" d="M33.37,27.12c.51.71.77,1.61.73,2.47,0,.23.16.44.39.46s.45-.16.46-.39c.04-1.12-.29-2.19-.94-3.1-.13-.19-.44-.18-.6-.04-.19.16-.17.41-.04.6h0Z"/>
        <path class="cls-2" d="M37.26,26.19l.55,2.8c.04.23.27.38.5.34s.38-.27.34-.5l-.55-2.8c-.04-.23-.27-.38-.5-.34s-.38.27-.34.5h0Z"/>
      </g>
    </g>
  </g>
</svg>