<?xml version="1.0" encoding="UTF-8"?>
<svg id="Calque_2" data-name="Calque 2" xmlns="http://www.w3.org/2000/svg" viewBox="0 0 803.19 74.65">
  <defs>
    <style>
      .cls-1 {
        fill: #ffe62e;
      }
    </style>
  </defs>
  <g id="Calque_1-2" data-name="Calque 1">
    <g>
      <g>
        <path class="cls-1" d="M49.01,49.63c0,7.21-2.29,13.07-6.87,17.58-4.85,4.85-11.55,7.28-20.1,7.28-4.89,0-9.52-1.26-13.89-3.79-3.35-1.91-5.9-4.12-7.64-6.61-.34-2.08-.51-3.98-.51-5.69,0-5.57,1.69-9.84,5.08-12.82,2.73-2.39,6.1-3.59,10.1-3.59,3.04,0,5.81.8,8.31,2.41,2.53,1.71,4.39,4.07,5.59,7.08,1.09,0,1.64-.56,1.64-1.69,0-.58-.25-1.35-.74-2.31-.5-.96-1.21-1.91-2.13-2.87-2.43-2.49-5.35-4.03-8.77-4.61V10.46c1.71-1.26,3.86-2.32,6.46-3.18,2.6-.85,5.55-1.28,8.87-1.28s6.31.58,8.97,1.74c3.76,1.71,5.64,4.27,5.64,7.69v34.2Z"/>
        <path class="cls-1" d="M60.09,67.21c-5.61-5.4-8.41-12.72-8.41-21.97s2.64-16.54,7.92-21.89c5.28-5.35,12.21-8.02,20.79-8.02s15.52,2.79,20.82,8.36c5.26,5.57,7.9,12.83,7.9,21.76s-2.54,16.04-7.61,21.3c-5.08,5.26-11.97,7.9-20.69,7.9s-15.62-2.48-20.71-7.43ZM79.26,44.5v8.97c.24.24.63.36,1.18.36s.94-.19,1.18-.56c.24-.38.36-1.03.36-1.95v-7.33c0-3.28-.14-5.46-.41-6.54-.27-1.08-.79-1.62-1.54-1.62-.48,0-.89.17-1.23.51.31,3.38.46,6.1.46,8.15Z"/>
        <path class="cls-1" d="M165.55,47.68c0,2.46.27,4.44.82,5.95.55,1.5,1.5,2.68,2.87,3.54.03.17.05.5.05.97v.92c0,4.72-1.36,8.38-4.08,11-2.72,2.61-6.22,3.92-10.51,3.92s-7.77-1.21-10.43-3.64c-3.11-2.77-4.67-6.97-4.67-12.61,0-2.39.11-4.5.33-6.33.22-1.83.38-3.14.46-3.92.08-.79.18-1.52.28-2.2.1-.68.15-1.69.15-3.02s-.18-2.29-.54-2.87-.85-.87-1.49-.87-1.19.14-1.67.41l.67,8.36c-.62,3.45-.92,7.11-.92,10.97s.87,7.38,2.61,10.56c-3.35,3.45-8.05,5.18-14.1,5.18-3.45,0-6.44-.91-8.97-2.72-2.94-2.05-4.41-4.77-4.41-8.15V3.28c1.64-.96,3.61-1.74,5.92-2.36s4.64-.92,7-.92c3.93,0,7.18.77,9.74,2.31,2.9,1.81,4.36,4.41,4.36,7.79v4.87c-2.97.17-5.83,1.03-8.56,2.56-2.36,1.37-3.54,2.62-3.54,3.74,0,.38.14.71.41,1,.27.29.6.47.97.54,1.44-1.67,3.46-3.08,6.08-4.2s5.72-1.69,9.31-1.69,6.82.55,9.69,1.64c3.62,1.37,6.48,3.45,8.56,6.26,2.5,3.42,3.74,7.71,3.74,12.87l-.15,10Z"/>
        <path class="cls-1" d="M222.87,47.68c0,2.46.27,4.44.82,5.95.55,1.5,1.5,2.68,2.87,3.54.03.17.05.5.05.97v.92c0,4.85-1.47,8.63-4.41,11.33-2.6,2.39-5.81,3.59-9.64,3.59-2.6,0-4.97-.62-7.13-1.85s-3.69-3.01-4.61-5.33c-1.16,0-1.74.56-1.74,1.69,0,.96.6,2.03,1.79,3.23-2.22,1.5-5.57,2.26-10.05,2.26-6.32,0-11.37-1.72-15.15-5.15-3.78-3.44-5.67-8.24-5.67-14.41s2-10.95,6-14.33c3.66-3.04,8.39-4.56,14.2-4.56,1.98,0,3.9.14,5.74.41,1.23.24,1.9.38,2,.41.1-.34.15-.63.15-.87,0-.89-.75-1.49-2.26-1.79-1.5-.31-3.47-.46-5.9-.46-5.16,0-9.57,1.04-13.23,3.13-1.67-2.84-2.51-6.43-2.51-10.77,0-2.46.31-4.29.92-5.49,2.46-1.13,5.59-2.13,9.38-3,3.79-.87,7.79-1.31,12-1.31,8.68,0,15.24,1.9,19.69,5.69s6.67,9.18,6.67,16.15v10.05ZM196.26,50.19c-1.44,0-2.15.65-2.15,1.95,0,1.23.84,1.85,2.51,1.85,1.16,0,2.02-.28,2.56-.85.55-.56.82-1.55.82-2.95h-3.74Z"/>
        <path class="cls-1" d="M282.96,47.68c0,2.46.27,4.44.82,5.95.55,1.5,1.5,2.68,2.87,3.54.03.17.05.5.05.97v.92c0,4.72-1.36,8.38-4.08,11-2.72,2.61-6.22,3.92-10.51,3.92s-7.77-1.21-10.43-3.64c-3.11-2.77-4.67-6.97-4.67-12.61,0-2.39.11-4.5.33-6.33.22-1.83.38-3.14.46-3.92.08-.79.18-1.52.28-2.2.1-.68.15-1.69.15-3.02s-.18-2.29-.54-2.87-.85-.87-1.49-.87-1.19.14-1.67.41l.67,8.36c-.62,3.45-.92,7.11-.92,10.97s.87,7.38,2.61,10.56c-3.35,3.45-8.05,5.18-14.1,5.18-3.45,0-6.44-.91-8.97-2.72-2.94-2.05-4.41-4.77-4.41-8.15v-24.81c-2.02-2.84-3.02-6.33-3.02-10.48s1.01-7.75,3.02-10.79h9.13c2.43,0,4.49.91,6.2,2.72-1.5,1.4-2.26,2.56-2.26,3.49,0,1.06.6,1.59,1.79,1.59,1.5-2.6,3.8-4.75,6.9-6.46,3.09-1.71,6.6-2.56,10.54-2.56,5.91,0,10.72,1.45,14.41,4.36,4.65,3.66,6.97,9.33,6.97,17.02l-.15,10.51Z"/>
        <path class="cls-1" d="M342.94,47.68c0,2.46.27,4.44.82,5.95.55,1.5,1.5,2.68,2.87,3.54.03.17.05.5.05.97v.92c0,4.72-1.36,8.38-4.08,11-2.72,2.61-6.22,3.92-10.51,3.92s-7.77-1.21-10.43-3.64c-3.11-2.77-4.67-6.97-4.67-12.61,0-2.39.11-4.5.33-6.33.22-1.83.38-3.14.46-3.92.08-.79.18-1.52.28-2.2.1-.68.15-1.69.15-3.02s-.18-2.29-.54-2.87-.85-.87-1.49-.87-1.19.14-1.67.41l.67,8.36c-.62,3.45-.92,7.11-.92,10.97s.87,7.38,2.61,10.56c-3.35,3.45-8.05,5.18-14.1,5.18-3.45,0-6.44-.91-8.97-2.72-2.94-2.05-4.41-4.77-4.41-8.15v-24.81c-2.02-2.84-3.02-6.33-3.02-10.48s1.01-7.75,3.02-10.79h9.13c2.43,0,4.49.91,6.2,2.72-1.5,1.4-2.26,2.56-2.26,3.49,0,1.06.6,1.59,1.79,1.59,1.5-2.6,3.8-4.75,6.9-6.46,3.09-1.71,6.6-2.56,10.54-2.56,5.91,0,10.72,1.45,14.41,4.36,4.65,3.66,6.97,9.33,6.97,17.02l-.15,10.51Z"/>
        <path class="cls-1" d="M400.26,47.68c0,2.46.27,4.44.82,5.95.55,1.5,1.5,2.68,2.87,3.54.03.17.05.5.05.97v.92c0,4.85-1.47,8.63-4.41,11.33-2.6,2.39-5.81,3.59-9.64,3.59-2.6,0-4.97-.62-7.13-1.85s-3.69-3.01-4.61-5.33c-1.16,0-1.74.56-1.74,1.69,0,.96.6,2.03,1.79,3.23-2.22,1.5-5.57,2.26-10.05,2.26-6.32,0-11.37-1.72-15.15-5.15-3.78-3.44-5.67-8.24-5.67-14.41s2-10.95,6-14.33c3.66-3.04,8.39-4.56,14.2-4.56,1.98,0,3.9.14,5.74.41,1.23.24,1.9.38,2,.41.1-.34.15-.63.15-.87,0-.89-.75-1.49-2.26-1.79-1.5-.31-3.47-.46-5.9-.46-5.16,0-9.57,1.04-13.23,3.13-1.67-2.84-2.51-6.43-2.51-10.77,0-2.46.31-4.29.92-5.49,2.46-1.13,5.59-2.13,9.38-3,3.79-.87,7.79-1.31,12-1.31,8.68,0,15.24,1.9,19.69,5.69s6.67,9.18,6.67,16.15v10.05ZM373.65,50.19c-1.44,0-2.15.65-2.15,1.95,0,1.23.84,1.85,2.51,1.85,1.16,0,2.02-.28,2.56-.85.55-.56.82-1.55.82-2.95h-3.74Z"/>
        <path class="cls-1" d="M441.84,73.11c-3.79,0-6.73-1.01-8.79-3.02-2.07-2.02-3.1-5.06-3.1-9.13V10.82c1.81-1.54,4.02-2.73,6.64-3.56,2.61-.84,5.32-1.26,8.13-1.26,4.13,0,7.64,1.03,10.51,3.08,3.11,2.33,4.67,5.54,4.67,9.64v28.04c-1.92.17-3.79.71-5.64,1.61-1.85.91-2.77,1.84-2.77,2.79,0,.58.32,1.08.97,1.49,3.38-2.84,8.41-4.25,15.07-4.25h12.15c2.26,3.96,3.38,8.02,3.38,12.15,0,2.05-.36,4.32-1.08,6.82-.72,2.5-1.67,4.41-2.87,5.74h-37.27Z"/>
        <path class="cls-1" d="M536.54,47.68c0,2.46.27,4.44.82,5.95.55,1.5,1.5,2.68,2.87,3.54.03.17.05.5.05.97v.92c0,4.85-1.47,8.63-4.41,11.33-2.6,2.39-5.81,3.59-9.64,3.59-2.6,0-4.97-.62-7.13-1.85s-3.69-3.01-4.61-5.33c-1.16,0-1.74.56-1.74,1.69,0,.96.6,2.03,1.79,3.23-2.22,1.5-5.57,2.26-10.05,2.26-6.32,0-11.37-1.72-15.15-5.15-3.78-3.44-5.67-8.24-5.67-14.41s2-10.95,6-14.33c3.66-3.04,8.39-4.56,14.2-4.56,1.98,0,3.9.14,5.74.41,1.23.24,1.9.38,2,.41.1-.34.15-.63.15-.87,0-.89-.75-1.49-2.26-1.79-1.5-.31-3.47-.46-5.9-.46-5.16,0-9.57,1.04-13.23,3.13-1.67-2.84-2.51-6.43-2.51-10.77,0-2.46.31-4.29.92-5.49,2.46-1.13,5.59-2.13,9.38-3,3.79-.87,7.79-1.31,12-1.31,8.68,0,15.24,1.9,19.69,5.69s6.67,9.18,6.67,16.15v10.05ZM509.93,50.19c-1.44,0-2.15.65-2.15,1.95,0,1.23.84,1.85,2.51,1.85,1.16,0,2.02-.28,2.56-.85.55-.56.82-1.55.82-2.95h-3.74Z"/>
        <path class="cls-1" d="M625.39,47.68c0,2.5.27,4.53.82,6.1.55,1.57,1.5,2.79,2.87,3.64.03.17.05.46.05.87v.77c0,4.68-1.37,8.34-4.1,10.97-2.73,2.63-6.26,3.95-10.59,3.95s-7.8-1.18-10.43-3.54c-3.11-2.73-4.67-6.92-4.67-12.56v-16.2c0-2.29-.75-3.44-2.26-3.44-.58,0-1.04.14-1.38.41l.92,7.64v11.59c0,4.65.77,8.17,2.31,10.56-1.64,1.74-3.68,3.1-6.13,4.08-2.44.97-4.93,1.46-7.46,1.46-4.1,0-7.28-.99-9.54-2.97-2.73-2.39-4.1-6.17-4.1-11.33v-18c0-2.29-.75-3.44-2.26-3.44-.58,0-1.04.14-1.38.41l.92,7.64v13.59c0,3.83.51,6.79,1.54,8.87-3.35,3.45-8.05,5.18-14.1,5.18-3.59,0-6.61-.9-9.07-2.72-2.84-2.08-4.26-4.89-4.26-8.41v-24.51c-2.02-2.84-3.02-6.33-3.02-10.48s1.01-7.75,3.02-10.79h12.36c2.43,0,4.49.91,6.2,2.72-1.5,1.4-2.26,2.56-2.26,3.49,0,1.06.6,1.59,1.79,1.59,1.5-2.6,3.57-4.67,6.2-6.2,3.08-1.74,6.68-2.61,10.82-2.61,3.14,0,5.9.67,8.28,2,2.38,1.33,4.14,2.87,5.31,4.61,1.61-2.19,3.7-3.84,6.28-4.95,2.58-1.11,5.27-1.67,8.07-1.67,6.19,0,10.99,1.91,14.41,5.74,3.35,3.83,5.02,9.07,5.02,15.74l-.21,10.2Z"/>
        <path class="cls-1" d="M658.15,10.1v4.56c-2.87.17-5.5.61-7.9,1.31-2.39.7-3.59,1.51-3.59,2.44,0,.55.27.99.82,1.33,3.76-1.85,7.74-2.77,11.95-2.77,7.52,0,13.68,2.59,18.48,7.77,4.8,5.18,7.2,11.92,7.2,20.23,0,10.05-2.91,17.62-8.72,22.71-5.3,4.65-12.5,6.97-21.61,6.97s-15.82-1.76-20.12-5.28c-2.36-1.95-3.54-4.48-3.54-7.59V3.28c1.64-.96,3.61-1.74,5.92-2.36s4.64-.92,7-.92c3.93,0,7.18.77,9.74,2.31,2.9,1.81,4.36,4.41,4.36,7.79ZM656.1,52.09c.34.34.75.51,1.23.51.75,0,1.26-.54,1.54-1.61.27-1.08.41-3.26.41-6.54v-5.23c0-.92-.12-1.57-.36-1.95-.24-.38-.63-.56-1.18-.56s-.94.12-1.18.36v6.87c0,2.05-.15,4.77-.46,8.15Z"/>
        <path class="cls-1" d="M713.31,6.41c1.81-2.12,3.81-3.72,6-4.79,2.19-1.08,4.97-1.61,8.36-1.61,4.1,0,7.43,1.15,10,3.43,2.63,2.46,3.95,5.78,3.95,9.95v33.84c0,5.09,1.23,8.41,3.69,9.95.03.17.05.5.05.97v.92c0,4.85-1.47,8.63-4.41,11.33-2.6,2.39-5.81,3.59-9.64,3.59-2.67,0-4.97-.56-6.92-1.69-2.29-1.3-3.9-3.08-4.82-5.33-1.16,0-1.74.56-1.74,1.69,0,.51.2,1.1.59,1.77.39.67.93,1.26,1.62,1.77-2.02,1.2-4.63,1.79-7.84,1.79-4.34,0-8.4-1-12.18-3-3.78-2-6.78-5.02-9-9.05-2.56-4.62-3.85-10.2-3.85-16.77,0-8.75,2.45-15.62,7.36-20.61,4.9-4.99,11.17-7.49,18.79-7.49,4.51,0,8.44.85,11.79,2.56.38-.38.56-.77.56-1.18,0-1.03-1.21-1.9-3.64-2.62s-4.87-1.08-7.33-1.08c0-3.49-.46-6.27-1.38-8.36ZM717,36.71c-.34-.34-.75-.51-1.23-.51-.75,0-1.26.54-1.54,1.62-.27,1.08-.41,3.26-.41,6.54v5.23c0,.92.12,1.57.36,1.95.24.38.63.56,1.18.56s.94-.12,1.18-.36v-6.87c0-3.35.15-6.07.46-8.15Z"/>
        <path class="cls-1" d="M799.45,47.68c0,2.46.27,4.44.82,5.95.55,1.5,1.5,2.68,2.87,3.54.03.17.05.5.05.97v.92c0,4.85-1.47,8.63-4.41,11.33-2.6,2.39-5.81,3.59-9.64,3.59-2.6,0-4.97-.62-7.13-1.85s-3.69-3.01-4.61-5.33c-1.16,0-1.74.56-1.74,1.69,0,.96.6,2.03,1.79,3.23-2.22,1.5-5.57,2.26-10.05,2.26-6.32,0-11.37-1.72-15.15-5.15-3.78-3.44-5.67-8.24-5.67-14.41s2-10.95,6-14.33c3.66-3.04,8.39-4.56,14.2-4.56,1.98,0,3.9.14,5.74.41,1.23.24,1.9.38,2,.41.1-.34.15-.63.15-.87,0-.89-.75-1.49-2.26-1.79-1.5-.31-3.47-.46-5.9-.46-5.16,0-9.57,1.04-13.23,3.13-1.67-2.84-2.51-6.43-2.51-10.77,0-2.46.31-4.29.92-5.49,2.46-1.13,5.59-2.13,9.38-3,3.79-.87,7.79-1.31,12-1.31,8.68,0,15.24,1.9,19.69,5.69s6.67,9.18,6.67,16.15v10.05ZM772.84,50.19c-1.44,0-2.15.65-2.15,1.95,0,1.23.84,1.85,2.51,1.85,1.16,0,2.02-.28,2.56-.85.55-.56.82-1.55.82-2.95h-3.74Z"/>
      </g>
      <g>
        <path class="cls-1" d="M106.71,45.29c0,7.09-.84,13.56-4.59,18.63-2.24,3.03-4.45,5.54-7.93,7.38-4,2.11-9.4,3.32-13.77,3.32-8.43,0-16.47-3.08-21.28-9.96-3.48-4.97-5.01-12.57-5.01-19.37,0-8.23,1.78-15.88,6.68-21.21s12.47-8.12,19.61-8.12,14.45,2.52,19.19,7.75c4.83,5.32,7.09,13.41,7.09,21.58Z"/>
        <g>
          <path d="M58.56,41.19c2.85.55,5.66,1.21,8.53,1.67,2.86.45,5.83.72,8.72.3,1.35-.2,2.68-.56,3.89-1.12.64-.3,1.25-.65,1.81-1.06.5-.35.98-.72,1.25-1.23.79-1.49-.3-3.84-2.36-3.84-.52,0-1,.16-1.42.42-.26.16-.38.3-.41.58-.01.16-.01.33,0,.49.03.56.18,1.13.5,1.62.65.98,1.82,1.56,3.04,1.85,3.17.74,6.75.1,9.75-.92,1.55-.53,3.05-1.22,4.34-2.15,1.08-.78,2.07-1.79,2.47-3,.09-.28.15-.56.18-.85.05-.55-.92-.61-.97-.06-.11,1.22-1.01,2.27-2.07,3.08-1.33,1.02-2.94,1.74-4.59,2.28s-3.55.93-5.39,1.04c-1.51.08-3.12,0-4.49-.58-.23-.1-.58-.29-.83-.48.04.03-.09-.07-.12-.1-.06-.05-.12-.11-.18-.17-.13-.13-.18-.2-.25-.3-.38-.57-.47-1.14-.4-1.81l-.16.29c.49-.35,1.09-.5,1.66-.2.53.28.87.81.98,1.35.14.68-.12,1.25-.69,1.7-.78.62-1.66,1.13-2.61,1.52-3.94,1.6-8.61,1.04-12.72.31-2.39-.42-4.75-.97-7.14-1.43-.6-.12-.93.69-.32.81h0Z"/>
          <path d="M69.17,42.41c-1.76.52-3.59,1.19-4.97,2.32-.8.66-1.48,1.55-1.39,2.56.17,2.07,3.06,2.64,4.95,2.52,1.78-.12,3.45-.78,4.92-1.65.22-.13.2-.45.04-.61-.19-.19-.47-.17-.69-.04-1.17.7-2.49,1.21-3.89,1.4-1.01.14-2.06.09-3.01-.27-.05-.02-.1-.04-.15-.06-.08-.03-.01,0,0,0-.02-.01-.05-.02-.07-.03-.1-.05-.2-.1-.3-.16-.08-.05-.16-.1-.24-.16-.06-.04.05.05-.04-.03-.04-.03-.08-.07-.11-.1-.06-.06-.11-.11-.17-.17-.03-.03-.08-.11-.03-.03-.03-.04-.06-.08-.08-.13-.04-.07-.08-.14-.11-.21-.05-.1,0,.03-.01-.03-.01-.04-.03-.08-.04-.13-.02-.08-.03-.15-.04-.23,0,0,0,.07,0-.02,0-.05,0-.1,0-.15,0-.04,0-.08.02-.12,0-.03.03-.15,0-.05.02-.09.05-.18.09-.27.09-.23.11-.26.27-.47.15-.2.3-.36.44-.5,1.26-1.16,3.07-1.84,4.76-2.34.25-.07.44-.26.38-.5-.05-.2-.32-.41-.57-.34h0Z"/>
          <path d="M93.73,39.29c1.64.11,3.31.31,4.85.84.5.17.96.37,1.39.65.18.11.23.15.4.32.06.06.11.12.17.18s-.03-.05.02.03c.02.04.05.07.07.11s.1.22.06.1c.02.07.04.13.05.2,0,.01.01.13,0,.06s0,.04,0,.06c0,.04-.04.23,0,.12-.02.06-.04.12-.06.18-.01.03-.03.07-.05.1-.03.06.04-.05-.03.04-.04.06-.09.12-.13.18-.02.03-.05.05-.07.08-.04.05.05-.05,0,0-.02.02-.04.04-.06.05-.66.6-1.57.94-2.52,1.18-1.74.44-3.57.53-5.36.48-.62-.02-.7.84-.07.86,1.77.05,3.59-.03,5.31-.42,1.12-.25,2.33-.64,3.18-1.36.6-.5,1.01-1.22.77-1.96-.29-.89-1.23-1.44-2.12-1.82-1.76-.75-3.8-.99-5.73-1.12-.62-.04-.7.81-.07.86h0Z"/>
          <path d="M71.98,47.78c.86,4.31,3.54,9.12,8.82,10.13,4.37.84,8.48-1.46,10.46-4.84,1.53-2.6,1.9-5.58,1.64-8.47-.05-.55-1-.38-.95.17.37,4.13-.8,9.05-5.08,11.38-1.58.86-3.42,1.25-5.26,1.03-1.93-.23-3.69-1.14-5.02-2.39-2.08-1.95-3.14-4.57-3.66-7.17-.11-.54-1.06-.38-.95.17h0Z"/>
          <path d="M79.43,46.49c.58.71.87,1.62.84,2.5,0,.23.18.44.45.46s.51-.16.52-.4c.05-1.13-.34-2.21-1.08-3.13-.15-.19-.5-.18-.69-.04-.21.17-.2.42-.04.61h0Z"/>
          <path d="M83.88,45.55c.21.94.42,1.88.63,2.82.05.23.31.38.57.34s.43-.28.38-.5c-.21-.94-.42-1.88-.63-2.82-.05-.23-.31-.38-.57-.34s-.43.28-.38.5h0Z"/>
        </g>
      </g>
    </g>
  </g>
</svg>