<?xml version="1.0" encoding="UTF-8"?>
<svg id="Calque_2" xmlns="http://www.w3.org/2000/svg" viewBox="0 0 34.38 31.54">
  <defs>
    <style>
      .cls-1 {
        fill: #ffe62e;
      }
    </style>
  </defs>
  <g id="Calque_1-2" data-name="Calque_1">
    <g>
      <path class="cls-1" d="M1.05,11.78c10.65,3.29,21.03,7.39,31.05,12.29,1.73.84,3.25-1.74,1.51-2.59C23.37,16.47,12.74,12.25,1.85,8.89,0,8.32-.79,11.21,1.05,11.78h0Z"/>
      <path class="cls-1" d="M19.95,1.45v28.65c0,1.93,3,1.93,3,0V1.45c0-1.93-3-1.93-3,0h0Z"/>
      <path class="cls-1" d="M7.97,22.47c7.81-1.82,15.54-3.97,23.16-6.45,1.83-.59,1.05-3.49-.8-2.89-7.63,2.48-15.35,4.63-23.16,6.45-1.88.44-1.08,3.33.8,2.89h0Z"/>
      <path class="cls-1" d="M7.98,4.86c6.95,6.08,12.43,13.62,16.09,22.1.76,1.77,3.35.24,2.59-1.51-3.75-8.69-9.44-16.48-16.56-22.71-1.45-1.27-3.58.85-2.12,2.12h0Z"/>
    </g>
  </g>
</svg>